<svg xmlns="http://www.w3.org/2000/svg" width="500" height="500" style="shape-rendering:geometricPrecision;text-rendering:geometricPrecision;image-rendering:optimizeQuality;fill-rule:evenodd;clip-rule:evenodd"><path fill="#fbc258" d="M225.5-.5h47q118.746 13.98 186.5 112 34.167 53.256 40.5 116v44q-18.494 147.226-153 209.5-34.885 14.393-72 18.5h-50Q77.767 479.515 17 344.5q-13.264-33.561-17.5-69v-52Q19.427 82.336 147.5 20q37.704-15.924 78-20.5" style="opacity:.913"/><path fill="#532f2e" d="M486.5 218.5q.144 8.81 2 17 2.701 146.394-121 222.5-43.202 23.652-92 29.5a577 577 0 0 1-42 1Q104.136 476.229 39 364.5q-33.154-62.525-28.5-133 1.96-7.674 2-16Q30.915 102.897 127.5 43q98.305-55.11 205-18Q455.732 74.74 485 204.5a200 200 0 0 1 1.5 14" style="opacity:1"/><path fill="#f4bc56" d="M241.5 27.5h9l11 32h-9l-1-6h-10a9.1 9.1 0 0 1-1 5q-4.419 1.732-9 .5a1717 1717 0 0 1 10-31.5" style="opacity:1"/><path fill="#f5bd57" d="M275.5 28.5a103.4 103.4 0 0 1 17 3.5q11.927 7.086 3.5 18.5a32.4 32.4 0 0 0-4.5 3l6 11q-4.463.924-9-1l-6-10q-1.237-1.329-3-1 2.508 11.48-9 9 2.339-16.53 5-33M217.5 28.5q1.314-.195 2 1a206 206 0 0 1-9 17 286 286 0 0 0 15 13.5 66 66 0 0 1-9 2.5 108 108 0 0 0-9.5-8q.068 4.95.5 10a41.6 41.6 0 0 0-8 1 1347 1347 0 0 1-6-32q4.116-1.057 8 0 1.154 4.515 2.5 9l5.5-11a53 53 0 0 1 8-3" style="opacity:1"/><path fill="#5d3731" d="M282.5 37.5q5.548-.102 8 4.5a6.3 6.3 0 0 1-1 3 32.4 32.4 0 0 1-8 .5 41.5 41.5 0 0 0 1-8" style="opacity:1"/><path fill="#f5bd57" d="m331.5 62.5-2 14q-8.524-.296-7.5-9-3.288-1.35-6.5-3a39.4 39.4 0 0 0-5.5 5 52 52 0 0 1-7.5-3.5A416 416 0 0 1 325 40.5a54 54 0 0 1 5.5 2q1.495 9.95 1 20" style="opacity:1"/><path fill="#633c32" d="M245.5 36.5q.925.166 1.5 1 .43 3.586 1.5 7-1.783 1.393-4 1a41.7 41.7 0 0 1 1-9" style="opacity:1"/><path fill="#f6be57" d="M154.5 47.5q1.763-.329 3 1a516 516 0 0 0 14 27 27 27 0 0 1-7.5 4 60.5 60.5 0 0 1-17-12 318 318 0 0 1 8.5 15.5q-2.05 3.3-6 4.5a287 287 0 0 1-16-28 36.2 36.2 0 0 1 7-4 104.3 104.3 0 0 1 16 11l1-1-8-14a23.7 23.7 0 0 1 5-4M354.5 53.5q2.949 1.412 6 3a95.5 95.5 0 0 1 .5 22 63 63 0 0 1 8.5-14.5q1.5-1 3 0 2.74 1.35 4 4a672 672 0 0 1-17 26.5 19 19 0 0 0-5-3 183 183 0 0 1-1.5-19L345.5 84q-4.248.06-7-3.5a5603 5603 0 0 0 16-27" style="opacity:1"/><path fill="#663f33" d="M323.5 51.5q.978 1.423 1 3.5.09 6.955-5 2.5 2.016-3.043 4-6" style="opacity:1"/><path fill="#9e7143" d="M331.5 62.5a57.2 57.2 0 0 1-1 15q-.91-.186-1-1z" style="opacity:1"/><path fill="#f7bf57" d="M111.5 74.5a405 405 0 0 1 30 18q-4.913 8.317-12 2-4.398 1.95-7 6 4.737 7.008-3.5 10-1.418-.608-2-2a301 301 0 0 0-10.5-29 26.4 26.4 0 0 0 5-5" style="opacity:1"/><path fill="#f0ba56" d="M235.5 76.5q96.027-3.351 154.5 72 53.51 80.089 18 170-43.44 91.626-144.5 103.5-109.14 4.316-165.5-88.5-52.086-105.074 20-197 47.285-52.518 117.5-60" style="opacity:1"/><path fill="#f4bc56" d="M388.5 76.5a158 158 0 0 1 19 17.5q-1.692 3.445-5 5.5-2.715-3.837-7-4.5a372 372 0 0 0-16 16.5 46.6 46.6 0 0 1-6-5.5A180.5 180.5 0 0 1 389 89.5q1-1.5 0-3-3.27-1.269-4.5-4.5a33 33 0 0 1 4-5.5" style="opacity:1"/><path fill="#133037" d="M230.5 82.5q107.439-6.16 164.5 84 39.081 74.337 7 152-53.937 104.868-172.5 97.5-85.199-12.183-127.5-86.5-33.801-68.622-9-141 39.84-90.765 137.5-106" style="opacity:1"/><path fill="#643e33" d="M115.5 84.5q3.862 1.842 7 5a6.54 6.54 0 0 1-3 3z" style="opacity:1"/><path fill="#f6be57" d="M86.5 99.5q4.725-.434 9 1.5a103 103 0 0 1 12.5 11.5q1 4.5 0 9-4.482 7.473-11 13A349 349 0 0 1 73.5 114q5.21-8.457 13-14.5" style="opacity:1"/><path fill="#f4bd56" d="M415.5 104.5q4.973.708 7 5.5-12.331 11.389-26 20-2.831-2.925-3.5-6.5a638 638 0 0 0 22.5-19" style="opacity:1"/><path fill="#58332f" d="M87.5 108.5q2.55-.24 5 .5a34.7 34.7 0 0 0 7.5 6.5q1.133 4.495-2.5 7.5-1 1-2 0a74.4 74.4 0 0 0-10.5-9.5q.087-2.903 2.5-5" style="opacity:1"/><path fill="#f6be57" d="M431.5 123.5q4.121 2.152 5 7a6273 6273 0 0 1-10.5 19 90.6 90.6 0 0 1 15-10q3.114 1.94 4.5 5.5a277 277 0 0 1-27 17.5 36.7 36.7 0 0 1-4-7l8.5-17a65 65 0 0 1-13 8q-3.114-1.94-4.5-5.5a3.94 3.94 0 0 1 1-2 235 235 0 0 0 25-15.5" style="opacity:1"/><path fill="#f7bf57" d="M57.5 136.5a437 437 0 0 1 34 6.5 44 44 0 0 0-3 5.5l-9 2a12.4 12.4 0 0 1-2.5 4q.885 3.471 3.5 6.5a27 27 0 0 1-4 7.5 762 762 0 0 1-21.5-25q.33-3.694 2.5-7" style="opacity:1"/><path fill="#5e3831" d="M64.5 143.5a63 63 0 0 1 8 4l-1.5 3q-4.29-2.719-6.5-7" style="opacity:1"/><path fill="#eeba58" d="m141.5 143.5 2 10q1.396 22.039 19 35.5a169 169 0 0 0 15 9 271 271 0 0 1 24 9 102 102 0 0 1 12 15q2.288 1.513 5 1.5-6.11 2.452-13 3a1837 1837 0 0 0 0 51 57 57 0 0 1-7 5.5q4.047.097 6.5-3.5.724 1.422.5 3-17.417 10.606-38 10-4.796.142-9-2 21.01.342 40-9.5a25.1 25.1 0 0 0 4-4.5q.814-.09 1-1-6.006-2.759-9 3 2.807-.538 4.5-3 .575.834 1.5 1-3.808 4.035-9 6.5-17.97 7.415-37 4a8.9 8.9 0 0 1-4-3q15.125 1.563 30-2 2.987-.56 5-2.5 7.051-1.277 12-6.5-5.096-3.433-8 1.5a71 71 0 0 0-7.5 3q-1.147-.105-1.5-1 6.406-1.704 11-6.5a4.93 4.93 0 0 0-3-.5q-.09-.814-1-1-7.218 4.599-15 4a55.7 55.7 0 0 0 13-5.5 2.43 2.43 0 0 0-2-.5q-.467-1.467-2-2a827 827 0 0 0-9 4 82 82 0 0 0 10-2q-21.09 11.307-43 1-4.498-2.214-4.5-7 7.11 6.12 16.5 6 8.5 2 17 0 7.245-.184 13-4.5a2.43 2.43 0 0 0-2-.5q-1.142-1.337-3-2a23.9 23.9 0 0 1-9 3 220 220 0 0 1-12 1.5q6.282.264 12 1.5h-15q-13.207-.225-20.5-11-1.11-1.873.5-3a409 409 0 0 1-3-6 2.43 2.43 0 0 1 .5-2q18.63 16.814 42.5 8.5-.816-1.076-2-1.5-.467-1.467-2-2-11.371 2.287-22.5-1-2.643.666.5 1.5 11.31 3.852 23 1.5-.166.925-1 1.5-21.52 5.049-38-9.5a101 101 0 0 1-4-8.5q.105-1.147 1-1.5 17.037 19.178 42 13-.186-.91-1-1a7.5 7.5 0 0 0-2-3 26.4 26.4 0 0 1-6.5 1 571 571 0 0 0-14.5-1.5q10.851 2.322 21 4.5-23.093 2.473-39-14a54 54 0 0 1-2-8q15.909 18.055 40 16.5l2-1q-1.321-1.062-2-2.5a106.5 106.5 0 0 0-18-2.5q8.18 3.178 17 2.5-23.132 4.482-38-15a27.4 27.4 0 0 1-2-11q12.983 20.39 37.5 23l4.5-.5q-1.984-1.224-2-3.5a140 140 0 0 0-16-3.5q7.042 3.765 15 3.5-1.25 1.872-4 2-21.78-3.002-32.5-22a31.8 31.8 0 0 1-1.5-12v-1q10.587 24.568 37 30 3.714.401 2-2-.41-2.926 2-4.5-.343-.598-1-.5-1.201-2.312-1-5-9.01-3.258-17-9l-1 .5q7.32 6.66 17 8.5v3q-13.248-2.248-22.5-12-11.141-11.783-11.5-28-.1-2.188 1-4l2 1q6.76 27.018 32.5 38 2.577-.797.5-2v-5a32.8 32.8 0 0 1-10-4q3.342 4.424 9 5v4q-24.718-11.412-31-38v-10q-.147-3.08 2-5 3.386 23.02 20 39.5 5.713 4.856 13 6.5 1.587-8.04-6-8.5a19 19 0 0 0 5 3 26.6 26.6 0 0 1-2 3.5q-27.955-16.402-27-49 .22-4.938 3-9M361.5 161.5q-4.4 26.827-28 40l-1-2a14.2 14.2 0 0 1 3-4q-8.192.956-3 8 26.01-13.028 30-42 .038-9.093 3.5-1 .749 5.979.5 12-6.16 25.662-30 37-1.356-1.063-1-3 5.86-1.093 10-5.5-5.47 3.108-12 4.5v5q-.197 1.314 1 2 25.052-11.553 33-38 0-2 2-2v3q-.474 32.25-31.5 42-1.545-.504-1.5-2 5.725-2.01 11-5.5-6.144 2.454-13 3.5v4q1.056 2.766 4 1.5 24.865-9.117 34-33.5v9q-9.158 24.653-35 30-.045-1.496 1.5-2a38.3 38.3 0 0 0 6.5-2.5q-4.94.548-10 1.5v3q-1.445 1.295 0 2 27.408-4.155 37.5-30 .574.834 1.5 1a39.7 39.7 0 0 1-1 11q-12.026 21.77-37 23a538 538 0 0 1 12-5 80 80 0 0 0-11 2q-2.513.552-3 3-.814.09-1 1 15.339 1.642 28-7.5 7.41-6.648 13-14.5.37 5.158-1 10-13.74 19.863-38 17a16.9 16.9 0 0 1 8-1 45.2 45.2 0 0 0 15-5.5 432 432 0 0 1-16 4.5 32.5 32.5 0 0 0-8 .5l-2 3q24.051 3.813 40.5-14.5.598.343.5 1a29.4 29.4 0 0 1-2 7q-11.667 11.33-28 13a61 61 0 0 1-11-.5q6.202-2.147 13-1.5 7.078-.661 13-4.5a62.7 62.7 0 0 0-13 3.5 40.3 40.3 0 0 1-12-1q-1.5 2.5-4 4a10.78 10.78 0 0 0 6 2q21.332.81 36.5-14 .598.343.5 1l-2 6q-15.015 14.423-36 12.5-2.905-.183-4-2.5 12.843 2.323 25-2.5-13.223 1.801-26 1.5a81 81 0 0 1-3 2.5 19.94 19.94 0 0 0 9 2.5l11 2a56 56 0 0 1-19-2q-1.533.533-2 2-3.92.893 0 2.5 14.81 5.193 29-.5 7.296-.772 12.5-6 .696.891.5 2a18.3 18.3 0 0 1-4 6q-4.477 1.239-8 4 4.632.184 8-3 .91.186 1 1-2 3-5 5-10.18 4.66-21.5 5-12.343-1.026-23.5-5.5 7.087 5.364 16 6 14.81 2.141 28.5-3.5.598.342.5 1-1.5 2.5-4 4-18.371 5.74-37 .5-4.108-1.539-7-4.5 5.36 2.2 11 2.5a67 67 0 0 1-10-4.5q-.91.186-1 1-2.518-.322-3 2-1.488-.258-2 1-2.217-.393-4 1 19.483 14.248 43 10a30 30 0 0 1 5-.5q-4.938 4.967-12 5-19.252 1.687-36-8a14.7 14.7 0 0 1-3-3.5l4 1q-.679-1.437-2-2.5-3.782-1.2-5 .5 8.013 10.023 21 12.5a218 218 0 0 0 24 2q-10.698 3.359-22 2.5-13.656-2.077-25-10a2.43 2.43 0 0 1 .5-2q7.894 6.08 17.5 7.5-10.278-3.378-18-10.5a61 61 0 0 1 .5-11q.981 1.794 1.5 0-.533-1.533-2-2v-8q10-.5 0-1 .49-14.772-1-29h-13a5.73 5.73 0 0 1 1-3q5.234-1.466 8.5-6a49 49 0 0 1 6.5-9.5 987 987 0 0 1 33-14q29.243-17.224 27.5-51.5 5.946 8.54 4.5 19" style="opacity:1"/><path fill="#896e3d" d="m143.5 153.5-2-10q.424-1.184 1.5-2 .749 5.979.5 12" style="opacity:1"/><path fill="#f0bb58" d="M264.5 180.5q-2.235 10.27 6 16-6.454 1.056-10.5-4a7.3 7.3 0 0 0-2 3 15 15 0 0 0-3.5-3q-.91.186-1 1-1.473.961-3 2l-2.5-3a15 15 0 0 1-3.5 3 4.46 4.46 0 0 1-1.5-2q-3.878 1.857-6.5 5a8.4 8.4 0 0 1-4-.5q7.706-1.857 3-8-7.961.538-16 0l-2-2q5.288-.269 10-1.5 4.287-.143 7-3.5a8.4 8.4 0 0 0-4-.5q-10.354-4.737-19.5 2 .437-7.222 7.5-10a2.43 2.43 0 0 1 2 .5 14.6 14.6 0 0 0-6 4l1 .5a22.1 22.1 0 0 1 9-2.5 3.65 3.65 0 0 0 1-1.5 71 71 0 0 1-4-2q1.717-1.939-1-3.5 4.847-2.033 2-5 2.244-.76 3.5 1.5a7.3 7.3 0 0 1 2-3q.294 2.679 2.5 4l5-2.5a372 372 0 0 1 23 0l2.5-2.5q-.64 3.89-.5 7.5l2 1-3 2.5q3.212 3.178 5 7" style="opacity:1"/><path fill="#856b3c" d="M133.5 162.5v10q-1.257.513-1 2l-2-1a61 61 0 0 0 3-11" style="opacity:1"/><path fill="#f5bd57" d="M45.5 167.5q7.386-.807 12 5 6.902-2.608 12.5 2 2.185 4.299 1 9L66.5 197a134.8 134.8 0 0 1-30.5-9.5q1.336-7.028 4-14 2.04-3.784 5.5-6" style="opacity:1"/><path fill="#493d25" d="M137.5 152.5h1q-.956 32.598 27 49a26.6 26.6 0 0 0 2-3.5 19 19 0 0 1-5-3q7.587.46 6 8.5-7.287-1.644-13-6.5-16.614-16.48-20-39.5a13.2 13.2 0 0 0 2-5" style="opacity:1"/><path fill="#f6be57" d="M422.5 169.5h35q1.145 3.962.5 8a698 698 0 0 1-24.5 20q-2.542-3.052-4-7a35.6 35.6 0 0 1 4.5-4q1.836-11.288-9.5-9-.291-4.245-2-8" style="opacity:1"/><path fill="#5b3630" d="M47.5 175.5q1.983-.255 3.5 1a16.6 16.6 0 0 1-.5 7q-7.883-1.458-3-8" style="opacity:1"/><path fill="#643e33" d="M439.5 176.5a32.5 32.5 0 0 1 8 .5q-5.187 6.77-8-.5" style="opacity:1"/><path fill="#886f40" d="M235.5 177.5q10.824-1.218 6 8-3.986 1.449-8 1.5 3.253-3.304 8-2.5.359-2.951-1-5.5l-10 1q2.987-.56 5-2.5" style="opacity:1"/><path fill="#a9894e" d="M251.5 170.5q5.726 7.502.5 16 .012-3.147.5-6.5-.287-3.075-2-5.5a6.85 6.85 0 0 0 1-4" style="opacity:1"/><path fill="#9d7f47" d="M246.5 177.5q3.597 2.073.5 5a12.9 12.9 0 0 1-.5-5" style="opacity:1"/><path fill="#0d0e0e" d="M369.5 172.5a945 945 0 0 0 5 17q-1.976 3.027 0 6-1.488.257-2-1v-9a36.1 36.1 0 0 1-3-10z" style="opacity:1"/><path fill="#5b3630" d="M58.5 179.5q2.466-.32 4.5 1a16.6 16.6 0 0 1-.5 7q-8.998-.494-4-8" style="opacity:1"/><path fill="#423723" d="M133.5 172.5q6.282 26.588 31 38h1q2.077 1.203-.5 2-25.74-10.982-32.5-38-.257-1.487 1-2" style="opacity:1"/><path fill="#b69453" d="M338.5 193.5q9.044-8.308 15.5-19-.048 3.147-2 6-4.803 8.686-13.5 13" style="opacity:1"/><path fill="#a7894f" d="M151.5 184.5a64 64 0 0 1 7 6.5q-5.047-1.287-7-6.5" style="opacity:1"/><path fill="#9f382f" d="M230.5 182.5a8.4 8.4 0 0 1 4 .5q-2.713 3.357-7 3.5a18.5 18.5 0 0 1-6-.5q5.048-.758 9-3.5" style="opacity:1"/><path fill="#eeba58" d="M127.5 184.5q8.075 27.572 36 35-1.423.978-3.5 1a87 87 0 0 1-8.5-2q4.784 3.585 11 4-.18 1.63-2 2-24.301-5.861-33-29z" style="opacity:1"/><path fill="#b59352" d="M155.5 201.5q-9.88-5.609-13.5-16a103.2 103.2 0 0 0 13.5 16" style="opacity:1"/><path fill="#3c3220" d="M361.5 161.5h1q-3.99 28.972-30 42-5.192-7.044 3-8a14.2 14.2 0 0 0-3 4l1 2q23.6-13.173 28-40" style="opacity:1"/><path fill="#605133" d="M253.5 193.5q.09-.814 1-1a15 15 0 0 1 3.5 3 7.3 7.3 0 0 1 2-3q4.046 5.056 10.5 4l-2 2q-1.875.116-2.5 2-3.053-3.618-3 2-.224-4.168-2.5-1.5 1.129 1.006 1 2.5-1.185 1.663-1.5 4-.354-2.428-2.5-3a18.5 18.5 0 0 1 2-3.5l-1-1q4.545-1.346 2.5-4.5-2.973.735-5 3-.149-3.229-2.5-5" style="opacity:1"/><path fill="#151614" d="M264.5 180.5a133 133 0 0 0 2.5 11 27.1 27.1 0 0 0 8.5 4.5l-4 2q7.479 1.698 0 5a14.7 14.7 0 0 1 5 1.5q-.533 1.533-2 2-2.127-2.712-6-2 .423-1.917 2-3 1.314.197 2-1a16.3 16.3 0 0 0-4-2l2-2q-8.235-5.73-6-16" style="opacity:1"/><path fill="#8c7344" d="M338.5 193.5q-.71 2.11-3 2 .71-2.11 3-2" style="opacity:1"/><path fill="#1e1d18" d="M264.5 180.5q-1.788-3.822-5-7l3-2.5-2-1q-.14-3.61.5-7.5l-2.5 2.5a372 372 0 0 0-23 0l-5 2.5q-2.206-1.321-2.5-4a7.3 7.3 0 0 0-2 3q-1.256-2.26-3.5-1.5 2.847 2.967-2 5 2.717 1.561 1 3.5-1.937-.356-3 1-7.063 2.778-7.5 10 9.146-6.737 19.5-2-3.952 2.742-9 3.5 2.96.743 6 .5-4.712 1.231-10 1.5l2 2q8.039.538 16 0 4.706 6.143-3 8a8.4 8.4 0 0 0 4 .5q2.586-.059 1 1l-6 3q.186.91 1 1l2 2a43 43 0 0 0-5 1.5q.816 1.076 2 1.5l2 2h-1q-2.682-.428-5 1 .757 2.128 3 2v1h-4q-1.687 1.272 0 3-5.247-.033-4 4.5a10.1 10.1 0 0 1-4 1.5q-2.712.013-5-1.5a102 102 0 0 0-12-15 271 271 0 0 0-24-9 169 169 0 0 1-15-9q-17.604-13.461-19-35.5a72.4 72.4 0 0 0-.5-12q-1.076.816-1.5 2-2.78 4.062-3 9h-1q.536-9.07 7.5-15-5.697 36.954 26.5 55.5a948 948 0 0 1 32 13 163 163 0 0 1 10 14q3.266 1.803 7 1.5v-5h3a37.7 37.7 0 0 1 2.5-8q1.34 1.817 2.5 0a6.85 6.85 0 0 1-1-4q4.164.617 2-2.5.608-1.418 2-2a7.25 7.25 0 0 1-2-2.5 30 30 0 0 1 5-2q1.393-1.783 1-4a145 145 0 0 1-17-.5q-3.415-2.42-4.5-6.5-6.92 8.468-5-3 3.159-6.97 10.5-9.5a4.46 4.46 0 0 1-2-1.5 47 47 0 0 0 3-7q5.206.938 8.5-3a12.9 12.9 0 0 1 .5 5 163 163 0 0 1 29-2.5 15.8 15.8 0 0 0 3.5-5.5q2.701 8.136.5 16.5 2.269 2.819 2 6.5" style="opacity:1"/><path fill="#c19d59" d="M218.5 174.5q1.063-1.356 3-1a71 71 0 0 0 4 2 3.65 3.65 0 0 1-1 1.5 22.1 22.1 0 0 0-9 2.5l-1-.5a14.6 14.6 0 0 1 6-4 2.43 2.43 0 0 0-2-.5" style="opacity:1"/><path fill="#b5a597" d="M237.5 171.5q2.322.481 2 3-3 4-6 0h4z" style="opacity:1"/><path fill="#2f2923" d="M237.5 171.5v3h-4q-1 0-1-1a16.3 16.3 0 0 0 5-2" style="opacity:1"/><path fill="#7a653d" d="M225.5 173.5q2.88-2.16 5 1l-.5 1q-1.665-2.305-4.5-2" style="opacity:1"/><path fill="#453b2d" d="M237.5 171.5q1.063-1.356 3-1v3q0 1-1 1 .322-2.519-2-3" style="opacity:1"/><path fill="#ba954f" d="M240.5 173.5v-3q-1.937-.356-3 1a16.3 16.3 0 0 1-5 2q-.166-.925-1-1.5 4.527-3.517 10-4.5 7.845.847 0 2.5 1.18 1.97-1 3.5" style="opacity:1"/><path fill="#8d7445" d="M175.5 203.5q1.495-1.82 3 .5-1.615.705-3-.5" style="opacity:1"/><path fill="#deaf58" d="M237.5 199.5q.116 1.875 2 2.5-3.14 2.028-7 1.5-.814-.09-1-1z" style="opacity:1"/><path fill="#cfa555" d="M253.5 193.5q2.351 1.771 2.5 5 2.027-2.265 5-3 2.045 3.154-2.5 4.5l1 1a18.5 18.5 0 0 0-2 3.5q-2.375 2.154-4.5 5-3.843-2.097-1-5l1 3 1.5-6a13 13 0 0 0-3-4q.519-1.794 1.5 0a8.4 8.4 0 0 0 .5-4" style="opacity:1"/><path fill="#e0b157" d="M268.5 198.5a16.3 16.3 0 0 1 4 2q-.686 1.197-2 1a12.9 12.9 0 0 0-5 .5q-1.129 1.006-1 2.5a5.73 5.73 0 0 1-3-1q.129-1.494-1-2.5 2.276-2.668 2.5 1.5-.053-5.618 3-2 .625-1.884 2.5-2" style="opacity:1"/><path fill="#413623" d="M366.5 172.5q-.258 1.487 1 2-7.948 26.447-33 38-1.197-.686-1-2 1.937.356 3-1 23.84-11.338 30-37" style="opacity:1"/><path fill="#bf9b57" d="M358.5 198.5q1.538.595.5 2-3.586 4.645-8.5 6.5a95 95 0 0 0 8-8.5" style="opacity:1"/><path fill="#8b7243" d="M270.5 201.5q-1.577 1.083-2 3a31 31 0 0 0-2 2 31 31 0 0 0-2-2q-.129-1.494 1-2.5a12.9 12.9 0 0 1 5-.5" style="opacity:1"/><path fill="#846d43" d="M322.5 202.5q2.818-.16 1 1.5-5.063.948-1-1.5" style="opacity:1"/><path fill="#907646" d="M336.5 209.5q-1.063 1.356-3 1v-5q6.53-1.392 12-4.5-4.14 4.407-10 5.5-.356 1.937 1 3" style="opacity:1"/><path fill="#8a7143" d="M155.5 201.5a32.8 32.8 0 0 0 10 4v5h-1v-4q-5.658-.576-9-5" style="opacity:1"/><path fill="#e1b256" d="M273.5 206.5a5.73 5.73 0 0 1-3 1q.83-3.078 3-1" style="opacity:1"/><path fill="#78633c" d="M268.5 204.5q3.873-.712 6 2h-1q-2.17-2.078-3 1h-2q2-1.5 0-3" style="opacity:1"/><path fill="#191915" d="M369.5 172.5q-2 0-2 2-1.258-.513-1-2a72.4 72.4 0 0 0-.5-12q-3.462-8.093-3.5 1h-1q1.446-10.46-4.5-19 1.743 34.276-27.5 51.5a987 987 0 0 0-33 14 49 49 0 0 0-6.5 9.5q-3.266 4.534-8.5 6-4.476-.43-4-5 1.356 1.063 1 3a18.5 18.5 0 0 0 6-.5l12-15a49317 49317 0 0 1 30-12 124 124 0 0 0 11-7.5q1.817-1.16 0-2.5 12.84-7.045 16.5-23.5.793-12.058 0-24 7.493 7.483 9.5 18 2.977 2.935 4.5 7 .48 5.571 1.5 11" style="opacity:1"/><path fill="#ac8b4f" d="M172.5 206.5q3.249-1.693 6 1.5-3.009-.225-6-1.5" style="opacity:1"/><path fill="#dbae58" d="M238.5 209.5q-3.161-1.452-7-1-1.184-.424-2-1.5a43 43 0 0 1 5-1.5q1.438.679 2.5 2 .873-4.752 3-1 1.003-3.792 2.5 0-1.174 2.682-4 3" style="opacity:1"/><path fill="#d9ac58" d="M264.5 204.5a31 31 0 0 1 2 2 31 31 0 0 1 2-2q2 1.5 0 3v1q-3.8 1.701-4 6a5.73 5.73 0 0 1-3-1q-1.766-2.404.5-4l1 3a168 168 0 0 0 1.5-8" style="opacity:1"/><path fill="#876f41" d="M231.5 208.5q3.839-.452 7 1-1.935.837-2.5 3-.625-1.884-2.5-2z" style="opacity:1"/><path fill="#846d41" d="M253.5 193.5a8.4 8.4 0 0 1-.5 4q-.981-1.794-1.5 0a13 13 0 0 1 3 4l-1.5 6-1-3q-2.843 2.903 1 5 2.125-2.846 4.5-5 .897 7.538 5 2a5.58 5.58 0 0 1-1-3q1.337.915 3 1a168 168 0 0 1-1.5 8l-1-3q-2.266 1.596-.5 4-1.185 1.663-1.5 4-.354-2.428-2.5-3 2.454-2.67.5-5-1.964 3.587-3 0-2.532 1.237-.5 3a28 28 0 0 0-1.5 5q-.425-4.863-2.5-1 .544 1.025 1 2-1.185 1.663-1.5 4-.354-2.428-2.5-3a51.6 51.6 0 0 0-1 7q-5.256-.64-11 0 .873-2.146 2.5-4 .571-5.665-2 0-.224-4.168-2.5-1.5.957 2.56 0 5.5-2.519.322-3-2a18.5 18.5 0 0 1 2-3.5q-2.457-.363-4.5-2.5a4.46 4.46 0 0 0-1.5 2q1.695 1.683 2 4-.705 1.79-3 2-1.839-.03-3-1 4.827-.226 1-2.5 3.587-1.036 0-3a81 81 0 0 0 3-2.5q1.763.329 3-1a44 44 0 0 1-3-2h4q2.32 9.789 6 0a11.5 11.5 0 0 0 3.5 5q3.065-5.774 7.5-10 1.46-2.352.5-5a7.3 7.3 0 0 0-2 3q-.224-4.168-2.5-1.5.686.621 1 1.5a28 28 0 0 0-1.5 5l-1-3-3 4a8.4 8.4 0 0 1-.5-4q2.826-.318 4-3-1.497-3.792-2.5 0-2.127-3.752-3 1-1.062-1.321-2.5-2l-2-2q3.86.528 7-1.5-1.884-.625-2-2.5 1.586-1.059-1-1 2.622-3.143 6.5-5a4.46 4.46 0 0 0 1.5 2 15 15 0 0 0 3.5-3l2.5 3a186 186 0 0 1 3-2" style="opacity:1"/><path fill="#e0b057" d="M261.5 203.5a5.58 5.58 0 0 0 1 3q-4.103 5.538-5-2 2.146.572 2.5 3 .315-2.337 1.5-4" style="opacity:1"/><path fill="#dfb157" d="M247.5 199.5q2.146.572 2.5 3l1-3q2.843 2.903-1 5-2.824-1.729-2.5-5" style="opacity:1"/><path fill="#ddaf57" d="M247.5 199.5q-2.375 2.154-4.5 5-3.843-2.097-1-5l1 3q.225-5.454 5-8 .96 2.648-.5 5" style="opacity:1"/><path fill="#8c7344" d="M305.5 209.5q3.713.37 0 2-1.445-.705 0-2" style="opacity:1"/><path fill="#9c7f49" d="M164.5 214.5h-1q-9.68-1.84-17-8.5l1-.5q7.99 5.742 17 9" style="opacity:1"/><path fill="#896f3e" d="M181.5 207.5q1.682 2.724 1.5 6-3.719-2.382-1.5-6" style="opacity:1"/><path fill="#d4a856" d="M232.5 210.5q-.129 1.494 1 2.5a4.93 4.93 0 0 1-3 .5q-2.243.128-3-2 2.318-1.428 5-1" style="opacity:1"/><path fill="#dfb056" d="M269.5 209.5q8.974.21 1 3-7.467.53-1-3" style="opacity:1"/><path fill="#3b3220" d="M372.5 194.5q.512 1.257 2 1v2q-.926-.166-1.5-1-10.092 25.845-37.5 30-1.445-.705 0-2h2q25.842-5.347 35-30" style="opacity:1"/><path fill="#dfb157" d="M247.5 209.5q2.146.572 2.5 3l1-3q2.843 2.903-1 5-2.824-1.729-2.5-5" style="opacity:1"/><path fill="#d9ad57" d="M257.5 214.5q-2.375 2.154-4.5 5-.575-.834-1.5-1a44 44 0 0 0-1-2q2.075-3.863 2.5 1a28 28 0 0 1 1.5-5q-2.032-1.763.5-3 1.036 3.587 3 0 1.954 2.33-.5 5" style="opacity:1"/><path fill="#725e38" d="M268.5 208.5q1 0 1 1-6.467 3.53 1 3l1 2q-2.988-.258-5 2a31 31 0 0 0-2-2q.2-4.299 4-6" style="opacity:1"/><path fill="#c39c52" d="M247.5 209.5q-4.435 4.226-7.5 10a11.5 11.5 0 0 1-3.5-5q-3.68 9.789-6 0v-1a4.93 4.93 0 0 0 3-.5q-1.129-1.006-1-2.5h1q1.875.116 2.5 2 .565-2.163 2.5-3a8.4 8.4 0 0 0 .5 4l3-4 1 3a28 28 0 0 1 1.5-5 3.65 3.65 0 0 0-1-1.5q2.276-2.668 2.5 1.5a7.3 7.3 0 0 1 2-3q.96 2.648-.5 5" style="opacity:1"/><path fill="#a68649" d="M317.5 208.5q2.044 5.422 3 11.5-3.49 6.597-2 0-3.122-2.073-1-5-.608-1.418-2-2 2.305-1.665 2-4.5" style="opacity:1"/><path fill="#443924" d="M125.5 197.5a31.8 31.8 0 0 0 1.5 12q10.72 18.998 32.5 22 2.75-.128 4-2h1q.016 2.276 2 3.5l-4.5.5q-24.517-2.61-37.5-23v-1q-.475-6.303 1-12" style="opacity:1"/><path fill="#b19052" d="M151.5 218.5q-7.46-2.697-13-8.5 1-1 2 0a126 126 0 0 0 11 8.5" style="opacity:1"/><path fill="#8c7240" d="M179.5 213.5q2.382 1.712 4 4.5-4.203.036-4-4.5" style="opacity:1"/><path fill="#1c1b18" d="M273.5 206.5h1q-.166.925-1 1.5 3.97.473 2 3.5l2 2q-1.972 2.548 0 5a20.7 20.7 0 0 0-5-1q6.428-3.465-1-3l-1-2q7.974-2.79-1-3 0-1-1-1v-1h2a5.73 5.73 0 0 0 3-1" style="opacity:1"/><path fill="#413723" d="M129.5 177.5q.359 16.217 11.5 28 9.252 9.752 22.5 12v-3h1q-.201 2.688 1 5h-2q-27.925-7.428-36-35a68 68 0 0 1 2-7" style="opacity:1"/><path fill="#8b7243" d="m336.5 215.5-2 2v-4q6.856-1.046 13-3.5-5.275 3.49-11 5.5" style="opacity:1"/><path fill="#aa894d" d="M171.5 217.5q3.025-2.06 6 .5-3.067.735-6-.5" style="opacity:1"/><path fill="#816b40" d="M191.5 217.5q1.329-1.914 3 0-1.1.88-3 0" style="opacity:1"/><path fill="#e0b157" d="M226.5 214.5a44 44 0 0 0 3 2q-1.237 1.329-3 1-1.687-1.728 0-3" style="opacity:1"/><path fill="#dfb057" d="M261.5 213.5q2.418 3.695-1.5 6-2.824-1.729-2.5-5 2.146.572 2.5 3 .315-2.337 1.5-4" style="opacity:1"/><path fill="#423723" d="M369.5 175.5a36.1 36.1 0 0 0 3 10q-9.135 24.383-34 33.5-2.944 1.266-4-1.5l2-2q-.045 1.496 1.5 2 31.026-9.75 31.5-42" style="opacity:1"/><path fill="#d4a956" d="M264.5 214.5a31 31 0 0 1 2 2q2.012-2.258 5-2 7.428-.465 1 3-3.297-.57-5 2-2.862 1.478-3 5l-4 2q.957-2.94 0-5.5 2.276-2.668 2.5 1.5a168 168 0 0 0 1.5-8" style="opacity:1"/><path fill="#9f8047" d="M307.5 215.5a2.43 2.43 0 0 1 2 .5q-2.256 2.682-5 1.5a44 44 0 0 0 3-2" style="opacity:1"/><path fill="#a6874d" d="M322.5 216.5q7.971-.391 1.5 2-1.545-.504-1.5-2" style="opacity:1"/><path fill="#433823" d="M125.5 196.5q.513-1.257 2-1 8.699 23.138 33 29 1.82-.37 2-2l2 2q1.714 2.401-2 2-26.413-5.432-37-30" style="opacity:1"/><path fill="#ddae57" d="M247.5 219.5q-2.375 2.154-4.5 5-3.843-2.097-1-5l1 3a28 28 0 0 1 1.5-5q-2.032-1.763.5-3l1 3a7.3 7.3 0 0 1 2-3q.96 2.648-.5 5" style="opacity:1"/><path fill="#897042" d="M337.5 224.5h-2v-3a134 134 0 0 1 10-1.5 38.3 38.3 0 0 1-6.5 2.5q-1.545.504-1.5 2" style="opacity:1"/><path fill="#b5924f" d="M151.5 218.5a87 87 0 0 0 8.5 2q2.077-.022 3.5-1h2q.657-.098 1 .5-2.41 1.574-2 4.5l-2-2q-6.216-.415-11-4" style="opacity:1"/><path fill="#6e5a36" d="M179.5 219.5a30 30 0 0 0 3 3.5q-3.651.5-3-3.5" style="opacity:1"/><path fill="#deaf56" d="M272.5 226.5q-1.917-.423-3-2-2.163-1.98-2-5 2.146.572 2.5 3l1-4 1 1q-1.188 3.519.5 7" style="opacity:1"/><path fill="#9e824c" d="M272.5 217.5a20.7 20.7 0 0 1 5 1q-.476 4.57 4 5a5.73 5.73 0 0 0-1 3q-1.875-.116-2.5-2-2.167 2.483-5.5 2-1.688-3.481-.5-7l-1-1-1 4q-.354-2.428-2.5-3 1.703-2.57 5-2" style="opacity:1"/><path fill="#a28349" d="M261.5 213.5q1.337.915 3 1a168 168 0 0 1-1.5 8q-.224-4.168-2.5-1.5.957 2.56 0 5.5-5.965-.193-11 0h-3a51.6 51.6 0 0 1 1-7q2.146.572 2.5 3 .315-2.337 1.5-4 .925.166 1.5 1 2.125-2.846 4.5-5-.324 3.271 2.5 5 3.918-2.305 1.5-6" style="opacity:1"/><path fill="#d6ab58" d="M230.5 224.5h-2q-.305-2.317-2-4a4.46 4.46 0 0 1 1.5-2q2.043 2.137 4.5 2.5a18.5 18.5 0 0 0-2 3.5" style="opacity:1"/><path fill="#d9ac56" d="M235.5 226.5h-2q.957-2.94 0-5.5 2.276-2.668 2.5 1.5 2.571-5.665 2 0-1.627 1.854-2.5 4" style="opacity:1"/><path fill="#be9951" d="M226.5 217.5a81 81 0 0 1-3 2.5q3.587 1.964 0 3 3.827 2.274-1 2.5-.925-.166-1.5-1-7.287 2.871-15.5 2 6.89-.548 13-3a10.1 10.1 0 0 0 4-1.5q-1.247-4.533 4-4.5" style="opacity:1"/><path fill="#9b7d47" d="M267.5 219.5q-.163 3.02 2 5-.436 1.724-2.5 2-2.064-.276-2.5-2 .138-3.522 3-5" style="opacity:1"/><path fill="#9c7e47" d="M322.5 223.5q7.971-.391 1.5 2-1.545-.504-1.5-2" style="opacity:1"/><path fill="#987c4a" d="M164.5 229.5h-1q-7.958.265-15-3.5a140 140 0 0 1 16 3.5" style="opacity:1"/><path fill="#ae8e51" d="M348.5 226.5q5.21-3.605 11-5.5-4.713 4.356-11 5.5" style="opacity:1"/><path fill="#856e42" d="M179.5 224.5q1.724.436 2 2.5l-.5 2.5q-1.904-2.107-1.5-5" style="opacity:1"/><path fill="#47433f" d="M264.5 224.5q.436 1.724 2.5 2 2.064-.276 2.5-2 1.083 1.577 3 2 3.333.483 5.5-2 .625 1.884 2.5 2h13v1h-43v30h-1v-31q5.035-.193 11 0z" style="opacity:1"/><path fill="#cd272a" d="M249.5 227.5v30h-1v-29h-41v44h-1v-45z" style="opacity:1"/><path fill="#8f723d" d="M293.5 226.5q1.49 14.228 1 29 10 .5 0 1v8a343 343 0 0 1-1-37z" style="opacity:1"/><path fill="#ea292f" d="M248.5 257.5a113 113 0 0 1-15-.5q1.856-.348 3-1.5 3.513-.412 0-2.5a29.5 29.5 0 0 0 4.5-2.5 64.6 64.6 0 0 0-1-16l-2 2a73.4 73.4 0 0 1-1.5 11.5 81 81 0 0 0-19.5.5q-4.134.114-3.5-4 2.71-6.246-2-11a57.5 57.5 0 0 0-2.5 16 11.53 11.53 0 0 0 4.5 3.5 3.65 3.65 0 0 0-1 1.5 14.7 14.7 0 0 0 5 1.5 19.6 19.6 0 0 0 2 3.5q1.418 3.96.5 8 2.034 1.32 4.5 1h6q-.354-4.663 1-9 1.477 6.202 1 13h-25v-44h41z" style="opacity:1"/><path fill="#f7f8f8" d="M292.5 227.5v45h-26q-.832-5.268 2-9 5.776 1.964 12 0a44 44 0 0 1-1-2v-5h3q1.356-1.063 1-3 2.466-.32 4.5 1 2.526-5.091.5-10-9.659-12.306-24-6a132 132 0 0 0-6.5 5 25.2 25.2 0 0 0 0 10 4.46 4.46 0 0 1 1.5-2q1.96 2.118 2.5 5 .075-3.366 2.5-5v6h-14v-30z" style="opacity:1"/><path fill="#666767" d="M292.5 227.5h1a343 343 0 0 0 1 37q-1.354 4.337-1 9h-27v-1h26z" style="opacity:1"/><path fill="#ba944d" d="M303.5 226.5a12.9 12.9 0 0 1 5 .5q-4 1.5 0 3a12.9 12.9 0 0 1-5 .5z" style="opacity:1"/><path fill="#171613" d="M374.5 195.5q1.664 3.13 2 7a264 264 0 0 1-2.5 34 147 147 0 0 0-2.5 8q.1-2.188-1-4l2-6q1.886-1.684-1-2a29.4 29.4 0 0 0 2-7q1.491-2.249 0-5 1.37-4.842 1-10l-1-2a39.7 39.7 0 0 0 1-11z" style="opacity:1"/><path fill="#9d7f47" d="M318.5 224.5q2.038 14.807-10 25.5-1.5 1-3 0 7.164-4.167 10-12a11.5 11.5 0 0 0-1-2.5q4.169-1.76 2-5.5 2.483-2.166 2-5.5" style="opacity:1"/><path fill="#81573b" d="M12.5 215.5q-.04 8.326-2 16-.186-8.353 2-16" style="opacity:1"/><path fill="#7a653e" d="M348.5 226.5a538 538 0 0 0-12 5h-2q.487-2.448 3-3a80 80 0 0 1 11-2" style="opacity:1"/><path fill="#433823" d="M126.5 221.5q14.868 19.482 38 15h1q.679 1.438 2 2.5l-2 1q-24.091 1.555-40-16.5z" style="opacity:1"/><path fill="#413623" d="m373.5 208.5 1 2q-5.59 7.852-13 14.5-12.661 9.142-28 7.5.186-.91 1-1h2q24.974-1.23 37-23" style="opacity:1"/><path fill="#705d39" d="M180.5 231.5a19.6 19.6 0 0 1 4 3.5q-3.511.252-4-3.5" style="opacity:1"/><path fill="#855b3c" d="M486.5 218.5q2.268 8.144 2 17-1.856-8.19-2-17" style="opacity:1"/><path fill="#8a7245" d="M165.5 236.5h-1q-8.82.678-17-2.5a106.5 106.5 0 0 1 18 2.5" style="opacity:1"/><path fill="#ac8c4e" d="M343.5 236.5q0-1-1-1a432 432 0 0 0 16-4.5 45.2 45.2 0 0 1-15 5.5" style="opacity:1"/><path fill="#140c0a" d="M236.5 255.5h-4q.1 2.188-1 4-1.354 4.337-1 9h-6q-2.163-1.98-2-5 1.944-5.479-1-11a97 97 0 0 1-9-4q-.401-2.398 1-4-.634 4.114 3.5 4a81 81 0 0 1 19.5-.5 73.4 73.4 0 0 0 1.5-11.5l2-2a64.6 64.6 0 0 1 1 16 29.5 29.5 0 0 1-4.5 2.5q3.513 2.088 0 2.5" style="opacity:1"/><path fill="#116c45" d="M288.5 244.5q-.147 3.906-3.5 6a82.5 82.5 0 0 0-17.5 1q-4.18-1.465-9-1a30.44 30.44 0 0 1 6-12q14.341-6.306 24 6" style="opacity:1"/><path fill="#f2ba56" d="M42.5 236.5q3.059 2.116 3 6 3.266-.13 6-2l1 1q-4.72 6.194 3 8-7.72 1.806-3 8l-1.5 1q-2.35-2.034-5.5-2-2.538 9.582-4 0-3.266.13-6 2l-1-1.5q2.034-2.35 2-5.5-11.91-1.914 0-4 .034-3.15-2-5.5l1-1.5q6.845 4.718 7-4" style="opacity:1"/><path fill="#f1ba56" d="M454.5 236.5q3.171 1.926 3 6 3.265-.13 6-2l1 1q-4.72 6.194 3 8-7.72 1.806-3 8l-1.5 1q-5.817-4.493-7.5 3-1.806-7.72-8-3l-1-1.5q2.034-2.35 2-5.5-11.909-1.914 0-4a37.8 37.8 0 0 1-2.5-8q7.285 6.988 8.5-3" style="opacity:1"/><path fill="#4f4228" d="M373.5 220.5q1.491 2.751 0 5 .098-.657-.5-1-16.449 18.313-40.5 14.5l2-3a32.5 32.5 0 0 1 8-.5q1 0 1 1a16.9 16.9 0 0 0-8 1q24.26 2.863 38-17" style="opacity:1"/><path fill="#9c7e46" d="M182.5 236.5q3.738 4.65 7 9.5-2.8 1.067-4.5-1.5a58 58 0 0 0-2.5-8" style="opacity:1"/><path fill="#ba9754" d="M345.5 243.5v-1a62.7 62.7 0 0 1 13-3.5q-5.922 3.839-13 4.5" style="opacity:1"/><path fill="#39301f" d="M371.5 232.5q2.886.316 1 2 .098-.657-.5-1-15.168 14.81-36.5 14l8-2q16.333-1.67 28-13" style="opacity:1"/><path fill="#423723" d="M127.5 231.5q15.907 16.473 39 14l2-1q.814.09 1 1-24.963 6.178-42-13z" style="opacity:1"/><path fill="#c29c53" d="M301.5 235.5q10.403 1.096 1 2.5 3.567 1.461-1 2 5.658 2.084 0 3a7.3 7.3 0 0 1 3 2q-3.39.066-6-2.5a32 32 0 0 0 3-7" style="opacity:1"/><path fill="#8c7445" d="m168.5 244.5-2 1q-10.149-2.178-21-4.5 7.169.648 14.5 1.5a26.4 26.4 0 0 0 6.5-1 7.5 7.5 0 0 1 2 3" style="opacity:1"/><path fill="#6d5936" d="M345.5 242.5v1q-6.798-.647-13 1.5 5.477.748 11 .5l-8 2a10.78 10.78 0 0 1-6-2q2.5-1.5 4-4a40.3 40.3 0 0 0 12 1" style="opacity:1"/><path fill="#ac8c4f" d="M316.5 246.5a19.2 19.2 0 0 1 5 2.5q-3.778 1.112-5-2.5" style="opacity:1"/><path fill="#523633" d="M213.5 244.5q-1.401 1.602-1 4-.86-4.738-.5-10-2.107 5.358-1 11a14.8 14.8 0 0 0 4.5 3 3.65 3.65 0 0 1-1 1.5q5.939-.313 5 5.5a19.6 19.6 0 0 1-2-3.5 14.7 14.7 0 0 1-5-1.5 3.65 3.65 0 0 1 1-1.5 11.53 11.53 0 0 1-4.5-3.5 57.5 57.5 0 0 1 2.5-16q4.71 4.754 2 11" style="opacity:1"/><path fill="#9a7d46" d="M170.5 250.5h-1q-11.69 2.352-23-1.5-3.143-.834-.5-1.5 11.129 3.287 22.5 1 1.533.533 2 2" style="opacity:1"/><path fill="#325242" d="M264.5 238.5a30.44 30.44 0 0 0-6 12q4.82-.465 9 1h-3q-2.425 1.634-2.5 5-.54-2.882-2.5-5a4.46 4.46 0 0 0-1.5 2 25.2 25.2 0 0 1 0-10 132 132 0 0 1 6.5-5" style="opacity:1"/><path fill="#a18248" d="M330.5 250.5q0-1-1-1 12.777.301 26-1.5-12.157 4.823-25 2.5" style="opacity:1"/><path fill="#3e3422" d="M130.5 242.5q16.48 14.549 38 9.5.834-.575 1-1.5h1q1.184.424 2 1.5-23.87 8.314-42.5-8.5a2.43 2.43 0 0 0-.5 2q-2.078-2.17 1-3" style="opacity:1"/><path fill="#897041" d="M189.5 247.5a32 32 0 0 1 9 6.5q-1.5 1-3 0a80 80 0 0 1-6-6.5" style="opacity:1"/><path fill="#cccdcd" d="M212.5 248.5a97 97 0 0 0 9 4q2.944 5.521 1 11a9.8 9.8 0 0 0-3-4q.939-5.813-5-5.5a3.65 3.65 0 0 0 1-1.5 14.8 14.8 0 0 1-4.5-3q-1.107-5.642 1-11-.36 5.262.5 10" style="opacity:1"/><path fill="#171a18" d="M288.5 244.5q2.026 4.909-.5 10-2.034-1.32-4.5-1 .356 1.937-1 3v-3h-4q-.46 4.328 1 8 .456.975 1 2-6.224 1.964-12 0l-1-2q2.919-.802 3-4 1.314-.197 2 1-1.392 1.902-.5 4 1.517-1.255 3.5-1 1.808-5.245-1.5-9-1.224 1.984-3.5 2h-1q-2.554 1.74-2-2h-3v-1h3a82.5 82.5 0 0 1 17.5-1q3.353-2.094 3.5-6" style="opacity:1"/><path fill="#755f37" d="M304.5 251.5q1.91.865 0 2-1.427 1.238-3 .5a81 81 0 0 0 3-2.5" style="opacity:1"/><path fill="#372f1f" d="M370.5 240.5q1.1 1.812 1 4h-1a2.43 2.43 0 0 0-.5-2q-14.377 13.878-34.5 12a19.94 19.94 0 0 1-9-2.5 81 81 0 0 0 3-2.5q1 0 1 1 1.095 2.317 4 2.5 20.985 1.924 36-12.5" style="opacity:1"/><path fill="#8c7343" d="M346.5 256.5q-9.182 1.34-20 1-1 0-1-1 .467-1.467 2-2a56 56 0 0 0 19 2" style="opacity:1"/><path fill="#3f261a" d="M222.5 225.5q1.161.97 3 1 2.295-.21 3-2h2q.481 2.322 3 2h2q5.744-.64 11 0h3v1h-43v51q-1 0-1-1a1837 1837 0 0 1 0-51q8.213.871 15.5-2 .575.834 1.5 1" style="opacity:1"/><path fill="#1a4431" d="M270.5 257.5v-3q2.276-.016 3.5-2 3.308 3.755 1.5 9-1.983-.255-3.5 1-.892-2.098.5-4-.686-1.197-2-1" style="opacity:1"/><path fill="#7e2d28" d="M236.5 255.5q-1.144 1.152-3 1.5 7.483.749 15 .5h1q-7.71 1.482-16 1v15h-27v-1h26q.477-6.798-1-13 1.1-1.812 1-4z" style="opacity:1"/><path fill="#8a8b8b" d="M264.5 252.5h3q-.554 3.74 2 2-1.97 5.71-3.5-1-.96 2.648.5 5h-1q-7.793.481-15-1h14z" style="opacity:1"/><path fill="#423723" d="M367.5 250.5q1.779 2.192 0 4a2.43 2.43 0 0 0-.5-2q-5.204 5.228-12.5 6 7.12-2.886 13-8" style="opacity:1"/><path fill="#080604" d="M249.5 257.5h1q7.207 1.481 15 1-.479 7.295 1 14v1q1.554 19.42-16 27h-2a36.2 36.2 0 0 1-7-4q-.5-1.5-2-2-5.331-6.477-6-15v-21q8.29.482 16-1" style="opacity:1"/><path fill="#eee" d="M269.5 254.5h1v3q-.081 3.198-3 4-1.356-1.063-1-3-1.46-2.352-.5-5 1.53 6.71 3.5 1" style="opacity:1"/><path fill="#bfbfc0" d="M282.5 256.5h-3v5q-1.46-3.672-1-8h4z" style="opacity:1"/><path fill="#dfaf55" d="M370.5 244.5q-.713 3.426-3 6-5.88 5.114-13 8-14.17 2.49-28-1 10.818.34 20-1l-11-2q20.123 1.878 34.5-12 .696.891.5 2" style="opacity:1"/><path fill="#1d1a14" d="M124.5 209.5v1a27.4 27.4 0 0 0 2 11l-1 2a54 54 0 0 0 2 8v1q-.895.353-1 1.5a101 101 0 0 0 4 8.5q-3.078.83-1 3a409 409 0 0 0 3 6q-1.61 1.127-.5 3 7.293 10.775 20.5 11 0 1-1 1-9.39.12-16.5-6 .002 4.786 4.5 7a5.73 5.73 0 0 0-1 3q-7.032-10.974-10.5-24-4.355-18.53-3.5-37" style="opacity:1"/><path fill="#493c24" d="M132.5 251.5q19.04 12.586 41 5.5-.816-1.076-2-1.5 1.939-1.717 3.5 1 .684 1.866-1.5 2.5-19.93 6.473-38-4a14.7 14.7 0 0 1-3-3.5" style="opacity:1"/><path fill="#9b7e47" d="M171.5 255.5q-9.545 4.686-20 1.5a403 403 0 0 0 20-1.5" style="opacity:1"/><path fill="#856e43" d="M321.5 262.5q-1 0-1-1 .467-1.467 2-2a63.4 63.4 0 0 0 20 4.5q-10.058 1.27-19.5-2.5-1.147.105-1.5 1" style="opacity:1"/><path fill="#443821" d="M325.5 256.5q0 1 1 1 13.83 3.49 28 1-14.19 5.693-29 .5-3.92-1.607 0-2.5" style="opacity:1"/><path fill="#896f40" d="m179.5 261.5-2 1q-4.857.906-10 0a23.9 23.9 0 0 0 9-3q1.858.663 3 2" style="opacity:1"/><path fill="#939394" d="M228.5 256.5q1.314-.197 2 1-3.274 3.95-1 8.5-1.702 1.124-3-.5 1.003-4.545 2-9" style="opacity:1"/><path fill="#473b25" d="M363.5 260.5q2 0 2 2h-1q-.09-.814-1-1-3.368 3.184-8 3 3.523-2.761 8-4" style="opacity:1"/><path fill="#bf9b56" d="M177.5 262.5q-4.576 2.401-10 3-5.718-1.236-12-1.5 6.042-.588 12-1.5 5.143.906 10 0" style="opacity:1"/><path fill="#342c1d" d="M320.5 261.5q0 1 1 1 5.14 2.661 11 3 0 1-1 1-7.651-.3-14-4.5a4.93 4.93 0 0 1 3-.5" style="opacity:1"/><path fill="#484849" d="M265.5 258.5h1q-.356 1.937 1 3l1 2q-2.832 3.732-2 9-1.479-6.705-1-14" style="opacity:1"/><path fill="#30291c" d="M179.5 261.5a2.43 2.43 0 0 1 2 .5q-5.755 4.316-13 4.5-1.487.258-2-1h1q5.424-.599 10-3z" style="opacity:1"/><path fill="#edb956" d="m253.5 271.5 10 2a35.2 35.2 0 0 0-8 6q2.963 4.311 2 9a87 87 0 0 1-7.5-5 40.5 40.5 0 0 0-9 6 70 70 0 0 0 2-11 25.5 25.5 0 0 0-6.5-5l10-2q3.185-17.668 7 0" style="opacity:1"/><path fill="#272117" d="M355.5 264.5q-3.507 2.31-8 2-1 0-1-1 4.473-.694 9-1" style="opacity:1"/><path fill="#594829" d="M152.5 265.5h14q.513 1.258 2 1-8.5 2-17 0 1 0 1-1" style="opacity:1"/><path fill="#866e41" d="M183.5 266.5h-1a82 82 0 0 1-10 2 827 827 0 0 1 9-4q1.533.533 2 2" style="opacity:1"/><path fill="#947741" d="M294.5 264.5q1.467.467 2 2-.519 1.794-1.5 0a61 61 0 0 0-.5 11q-1.401-1.602-1-4-.354-4.663 1-9" style="opacity:1"/><path fill="#584729" d="M332.5 265.5h14q0 1 1 1-8 2-16 0 1 0 1-1" style="opacity:1"/><path fill="#7a6664" d="M219.5 259.5a9.8 9.8 0 0 1 3 4q-.163 3.02 2 5-2.466.32-4.5-1 .918-4.04-.5-8" style="opacity:1"/><path fill="#3b3220" d="M359.5 267.5q1.688 1.728 0 3 .098-.658-.5-1-13.69 5.641-28.5 3.5-8.913-.636-16-6 11.157 4.474 23.5 5.5 11.32-.34 21.5-5" style="opacity:1"/><path fill="#3a301f" d="M182.5 266.5h1a2.43 2.43 0 0 1 2 .5 55.7 55.7 0 0 1-13 5.5q-2.398-.401-4 1a163 163 0 0 1-18-.5 21.1 21.1 0 0 1-10-3.5q-.91.186-1 1h-1a5.73 5.73 0 0 1 1-3q21.91 10.307 43-1" style="opacity:1"/><path fill="#ae8d50" d="M172.5 268.5q-6.584 2.81-14 1.5a66.8 66.8 0 0 1 14-1.5" style="opacity:1"/><path fill="#a5874d" d="M320.5 267.5q.353-.895 1.5-1a101.4 101.4 0 0 0 20.5 3.5q-11.284 1.193-22-2.5" style="opacity:1"/><path fill="#e8b657" d="M168.5 273.5a4.93 4.93 0 0 1 3 .5 43 43 0 0 0-9 2q2.822.297 5 1.5-11.931.945-23-3-3.381-.936-5-4 .09-.814 1-1a21.1 21.1 0 0 0 10 3.5q8.986.749 18 .5" style="opacity:1"/><path fill="#574420" d="m246.5 271.5-10 2q-.814-.09-1-1a31.1 31.1 0 0 1 11-1" style="opacity:1"/><path fill="#503e1c" d="M253.5 271.5a31.1 31.1 0 0 1 11 1q-.186.91-1 1z" style="opacity:1"/><path fill="#8e7444" d="M311.5 270.5v-1q.09-.814 1-1a67 67 0 0 0 10 4.5q-5.64-.3-11-2.5" style="opacity:1"/><path fill="#acaeaf" d="M206.5 273.5h27v6q-1.426-2.128-1-5h-25v7h-1v-8" style="opacity:1"/><path fill="#b2904f" d="M188.5 269.5v1a109.8 109.8 0 0 1-19 5.5 2.43 2.43 0 0 0 2 .5q-1.602 1.401-4 1-2.178-1.203-5-1.5a43 43 0 0 1 9-2 4.93 4.93 0 0 0-3-.5q1.602-1.401 4-1 7.782.599 15-4 .91.186 1 1" style="opacity:1"/><path fill="#eab858" d="M188.5 270.5q-1.874 2.454-5 3.5a77 77 0 0 1-12 2.5 2.43 2.43 0 0 1-2-.5 109.8 109.8 0 0 0 19-5.5" style="opacity:1"/><path fill="#f7f6f5" d="M233.5 279.5q.669 8.523 6 15a2.43 2.43 0 0 1-.5 2q-1.517-1.255-3.5-1v-3q-1.52-1.76-4-2v-3l-2-3v-2q-1.933-4.233-6-2a42 42 0 0 1-2 6l-2.5-5q-1.5-2-3 0l-2-4q-6.565 13.47 3.5 25 1.327 3.84 5 6-.11 2.29 2 3l2 1q1.627 3.13 5 4 4.221.67 9 .5 2.265 1.275 4.5 2.5l1.5-1-7-4a9.1 9.1 0 0 1-1-5q0-1 1-1 4.128.117 8 .5-2.36-2.74-2.5-6.5a30 30 0 0 1-5.5 4q2-2 0-4a5.73 5.73 0 0 0 1-3q-.356-1.937 1-3a36.2 36.2 0 0 0 7 4v28h-4q-2.695-1.845-6-2-1.52-1.76-4-2-1.739-2.625-5-3-1.144-2.643-4-3-3.5-4.5-8-8a24.8 24.8 0 0 0-5-8q-1.15-5.473-4-10a185 185 0 0 1-1-11v-7h25q-.426 2.872 1 5" style="opacity:1"/><path fill="#947945" d="m303.5 277.5-4-1q-1.063-1.356-3-1 1.218-1.7 5-.5 1.321 1.063 2 2.5" style="opacity:1"/><path fill="#d7aa56" d="M308.5 271.5q2.596.789 4 3-2.021-.792-4-.5 6.17 5.097 14 5-4.463-1.057-8-3.5a308 308 0 0 0 17 4 4.93 4.93 0 0 0-3 .5l6 1q-3.312.286-6 1.5-11.745-1.499-22-7.5-1.647-1.155 0-2.5.512-1.258 2-1" style="opacity:1"/><path fill="#876f43" d="M202.5 276.5q-1-2-2 0-.925-.166-1.5-1-1.693 2.462-4.5 3 2.994-5.759 9-3-.186.91-1 1" style="opacity:1"/><path fill="#a1834a" d="M312.5 274.5q1.488-.258 2 1 3.537 2.443 8 3.5-7.83.097-14-5 1.979-.292 4 .5" style="opacity:1"/><path fill="#463b26" d="M188.5 269.5a4.93 4.93 0 0 1 3 .5q-4.594 4.796-11 6.5-1.487-.258-2 1a96.6 96.6 0 0 1-26 1.5q-4.116-2.305-8-1.5-1.687-1.272 0-3 11.069 3.945 23 3 2.398.401 4-1a77 77 0 0 0 12-2.5q3.126-1.046 5-3.5z" style="opacity:1"/><path fill="#4a3e28" d="M185.5 279.5a55.6 55.6 0 0 0 8-5.5q-1.979-.292-4 .5 2.904-4.933 8-1.5-4.949 5.223-12 6.5" style="opacity:1"/><path fill="#433824" d="M311.5 269.5v1q2.892 2.961 7 4.5 18.629 5.24 37-.5v2q-11.703 3.633-24 3a308 308 0 0 1-17-4q-.512-1.258-2-1-1.404-2.211-4-3 .482-2.322 3-2" style="opacity:1"/><path fill="#f0bc58" d="M178.5 277.5q-5.62 3.03-14 3.5 2.822.297 5 1.5a86.8 86.8 0 0 1-18-1q-4.246-.868-7-4 3.884-.805 8 1.5a96.6 96.6 0 0 0 26-1.5" style="opacity:1"/><path fill="#c49d52" d="M185.5 279.5a137 137 0 0 1-16 3q-2.178-1.203-5-1.5 8.38-.47 14-3.5.513-1.258 2-1 .353.895 1.5 1a71 71 0 0 1 7.5-3q2.021-.792 4-.5a55.6 55.6 0 0 1-8 5.5" style="opacity:1"/><path fill="#947945" d="M194.5 278.5q-2.127 3.313-6 2.5a23.4 23.4 0 0 1 6-2.5" style="opacity:1"/><path fill="#856e42" d="M205.5 277.5q0 1 1 1v3q0 1-1 1a4.93 4.93 0 0 0-.5-3q-2.453 3.597-6.5 3.5a57 57 0 0 0 7-5.5" style="opacity:1"/><path fill="#4a3e27" d="M306.5 272.5q-1.647 1.345 0 2.5 10.255 6.001 22 7.5h14q1.063 1.356 3 1-23.517 4.248-43-10 1.783-1.393 4-1" style="opacity:1"/><path fill="#368461" d="M229.5 282.5v2q-3.017 2.83-6 .5a69 69 0 0 1 6-2.5" style="opacity:1"/><path fill="#a7884d" d="M294.5 277.5q7.722 7.122 18 10.5-9.606-1.42-17.5-7.5a2.43 2.43 0 0 0-.5 2q-1.83-2.325 0-5" style="opacity:1"/><path fill="#e5b87b" d="m221.5 286.5 3 8q-2.425 1.634-2.5 5l-1-1a4.93 4.93 0 0 0-.5 3q-1.937-.356-3 1-10.065-11.53-3.5-25l2 4q1.5-2 3 0z" style="opacity:1"/><path fill="#e1e7df" d="M229.5 282.5a69 69 0 0 0-6 2.5q2.983 2.33 6-.5l2 3q-2.42 2.654-6 3.5 3.381 3.033 6-.5 2.48.24 4 2a379 379 0 0 0-6 4q3.449 1.885 6-1 1.983-.255 3.5 1a2.43 2.43 0 0 0 .5-2q1.5.5 2 2-1.356 1.063-1 3-1.083-.626-1.5-2a39 39 0 0 1-4.5 4.5 12.9 12.9 0 0 0 5 .5q2 2 0 4v2q-1 0-1 1-1.5-.5-2-2-1.144-2.643-4-3a612 612 0 0 0-8-10l-3-8a42 42 0 0 0 2-6q4.067-2.233 6 2" style="opacity:1"/><path fill="#473724" d="M292.5 273.5h1q-.401 2.398 1 4-1.83 2.675 0 5 11.344 7.923 25 10-1 0-1 1-12.904-2.135-24-9-1.656 1.697 1 2.5l-3 1q1.321 1.063 2 2.5h-3a125 125 0 0 0 1-17" style="opacity:1"/><path fill="#362d1e" d="M202.5 276.5a25.1 25.1 0 0 1-4 4.5q-18.99 9.842-40 9.5h-1q-4.608-2.292-8-6 .663-1.858 2-3a86.8 86.8 0 0 0 18 1 137 137 0 0 0 16-3q-2.013 1.94-5 2.5-14.875 3.563-30 2a8.9 8.9 0 0 0 4 3q19.03 3.415 37-4 5.192-2.465 9-6.5 1-2 2 0" style="opacity:1"/><path fill="#433825" d="M206.5 281.5h1q.337 5.519 1 11a31 31 0 0 1-2-2 78.6 78.6 0 0 1-23 8v-1q11.33-2.6 22-8 2-2.5 0-5-12.088 7.268-26 9h-12v-1q20.583.606 38-10 1 0 1-1" style="opacity:1"/><path fill="#378562" d="M231.5 287.5v3q-2.619 3.533-6 .5 3.58-.846 6-3.5" style="opacity:1"/><path fill="#e4b458" d="M183.5 297.5q-9.327.784-18-2l14-2q13.912-1.732 26-9 2 2.5 0 5-10.67 5.4-22 8" style="opacity:1"/><path fill="#3f3421" d="M294.5 291.5v-1a105.6 105.6 0 0 0 22 7v1a70.7 70.7 0 0 1-22-7" style="opacity:1"/><path fill="#252118" d="M364.5 262.5h1a154 154 0 0 1-14.5 22q-13.187 10.73-28.5 17.5-7.776 1.224-15-.5a76 76 0 0 0 15-1q1.314.197 2-1a13.1 13.1 0 0 0-7-1h-1v-1a85 85 0 0 0 13-.5 12.8 12.8 0 0 0 6-3 145 145 0 0 0-17-.5q0-1 1-1 11.302.859 22-2.5a218 218 0 0 1-24-2q-12.987-2.477-21-12.5 1.937-.356 3 1a14.7 14.7 0 0 0 3 3.5q16.748 9.687 36 8 7.062-.033 12-5a30 30 0 0 0-5 .5q-1.937.356-3-1 8.005-.15 13-6v-2q2.5-1.5 4-4 1.688-1.272 0-3 3-2 5-5" style="opacity:1"/><path fill="#a3844c" d="M303.5 277.5q6.468 2.731 13 5.5-7.536-.267-13-5.5" style="opacity:1"/><path fill="#f2bd58" d="M355.5 276.5q-4.995 5.85-13 6h-14q2.688-1.214 6-1.5l-6-1a4.93 4.93 0 0 1 3-.5q12.297.633 24-3" style="opacity:1"/><path fill="#927643" d="M167.5 293.5h12l-14 2q-1.184-.425-2-1.5a8.4 8.4 0 0 1 4-.5" style="opacity:1"/><path fill="#e2b256" d="M318.5 293.5q8.514-.249 17 .5a12.8 12.8 0 0 1-6 3 85 85 0 0 1-13 .5 105.6 105.6 0 0 1-22-7q-.679-1.437-2-2.5l3-1q-2.656-.803-1-2.5 11.096 6.865 24 9" style="opacity:1"/><path fill="#398663" d="M235.5 292.5v3q-2.551 2.885-6 1a379 379 0 0 1 6-4" style="opacity:1"/><path fill="#503826" d="M291.5 290.5q-.202 3.081 2 5v1a44 44 0 0 1-2-1q-.836 2.748-3 4 .642-4.928 3-9" style="opacity:1"/><path fill="#daac55" d="m208.5 292.5-2 3q-13.731 6.556-29 6a81 81 0 0 0-3-2.5 41 41 0 0 1 9-.5 78.6 78.6 0 0 0 23-8 31 31 0 0 0 2 2" style="opacity:1"/><path fill="#c7a055" d="M291.5 290.5h3v1q-1.857.465 0 1.5l8 4q-1.374.417-2 1.5a32.5 32.5 0 0 1-7-3q-2.202-1.919-2-5" style="opacity:1"/><path fill="#e7b657" d="M206.5 295.5q1.494-.129 2.5 1 .53 3.978 3.5 6 .608 3.225 1.5 6-2.549 1.359-5.5 1v-6q-2.687-.201-5 1-1.487.258-2-1 1 0 1-1 3.132-2.754 4-7" style="opacity:1"/><path fill="#5a5040" d="M208.5 292.5q2.85 4.527 4 10-2.97-2.022-3.5-6-1.006-1.129-2.5-1z" style="opacity:1"/><path fill="#e4b255" d="M294.5 291.5a70.7 70.7 0 0 0 22 7h1l5 2a76 76 0 0 1-15 1q-3.106-2.168-7-3 .626-1.083 2-1.5l-8-4q-1.857-1.035 0-1.5" style="opacity:1"/><path fill="#e52c2f" d="M266.5 273.5h26q.08 8.543-1 17-2.358 4.072-3 9-2.262 2.521-3 6a35.2 35.2 0 0 0-6 8 6.55 6.55 0 0 0-3 3q-2.856.357-4 3-2.596.789-4 3-4.477 1.239-8 4a31.6 31.6 0 0 0-9.5 3q-.75-14.492-.5-29 17.554-7.58 16-27" style="opacity:1"/><path fill="#957944" d="M317.5 298.5a13.1 13.1 0 0 1 7 1q-.686 1.197-2 1z" style="opacity:1"/><path fill="#151411" d="M157.5 290.5h1q4.204 2.142 9 2v1a8.4 8.4 0 0 0-4 .5q.816 1.075 2 1.5 8.673 2.784 18 2v1a41 41 0 0 0-9 .5 81 81 0 0 1 3 2.5q-11.83-2.41-20-11" style="opacity:1"/><path fill="#e3af67" d="M224.5 294.5a612 612 0 0 1 8 10q1.749 2.5 0 5-1.5-2-3 0-1.817-1.16 0-2.5-2.497-1.183-5-1 3.684 3.238-2 2.5-3.673-2.16-5-6 1.063-1.356 3-1a4.93 4.93 0 0 1 .5-3l1 1q.075-3.366 2.5-5" style="opacity:1"/><path fill="#f4bc56" d="M63.5 300.5q1.762-.329 3 1a21 21 0 0 1 2 7l-32 9q-.675-4.185 0-8a640 640 0 0 0 27-9" style="opacity:1"/><path fill="#191a19" d="M206.5 295.5q-.868 4.246-4 7v-3a22.4 22.4 0 0 0-8 2.5q-8.773 1.227-17-.5 15.269.556 29-6" style="opacity:1"/><path fill="#2f7f5a" d="M240.5 299.5a5.73 5.73 0 0 1-1 3 12.9 12.9 0 0 1-5-.5 39 39 0 0 0 4.5-4.5q.417 1.374 1.5 2" style="opacity:1"/><path fill="#b2b4b4" d="M248.5 300.5h1v29h-5v-1h4z" style="opacity:1"/><path fill="#f6be57" d="M450.5 300.5a57.2 57.2 0 0 1 15 1 21 21 0 0 0-2 7h-7a28.7 28.7 0 0 1-2 7 208 208 0 0 0 5 6.5 58 58 0 0 1-3 6.5 391 391 0 0 1-26.5-19q-.805-4.03 1.5-7.5a178 178 0 0 0 19-1.5" style="opacity:1"/><path fill="#e6b557" d="M293.5 296.5q.826 4.15 4 7a4.46 4.46 0 0 1-2 1.5 48.6 48.6 0 0 0 5 6.5 18.5 18.5 0 0 1-6-.5q-1.611-1.108-2-3 1.57-2.367 0-4.5-1.428 2.318-1 5-1.812 1.1-4 1-4.472-.442-2-4 2.146-1.418 4-3.5-1.129-1.006-1-2.5 2.164-1.252 3-4 1.025.544 2 1" style="opacity:1"/><path fill="#5c462d" d="M288.5 299.5q-.129 1.494 1 2.5-1.854 2.082-4 3.5.738-3.479 3-6" style="opacity:1"/><path fill="#bf9257" d="M277.5 280.5q4.533.456 9 1.5a31.4 31.4 0 0 1 2 6.5q-.91 6.33-3.5 12a118 118 0 0 1-6 9q-1.517 1.255-3.5 1 .255 1.983-1 3.5-4.802 3.832-11 4.5-3.029-1.47-5.5-4-.268-12.67 7-23a184 184 0 0 1 12.5-11" style="opacity:1"/><path fill="#e92e30" d="M277.5 284.5q9.848-1.617 6.5 8-4.252 11.29-13.5 19.5-4.006 2.854-9 2.5-.95-8.105 3-15a69.7 69.7 0 0 1 13-15" style="opacity:1"/><path fill="#121312" d="M201.5 303.5q.513 1.258 2 1v1a17.9 17.9 0 0 0-4 6v2q-3.228 3.276 0 6-.533 1.533-2 2-.606-1.884-2-3.5 2.9-2.93 1-6.5l4-5q-3.954-2.346.5-4 .598.342.5 1" style="opacity:1"/><path fill="#368561" d="M239.5 308.5v-2a30 30 0 0 0 5.5-4q.14 3.76 2.5 6.5a114 114 0 0 0-8-.5" style="opacity:1"/><path fill="#e5b459" d="M203.5 305.5h3q.563 7.493-7 6a17.9 17.9 0 0 1 4-6" style="opacity:1"/><path fill="#5d3831" d="M441.5 309.5q3.161-1.452 7-1 .417 2.77-2 4a18.7 18.7 0 0 1-5-3" style="opacity:1"/><path fill="#e4bf92" d="M232.5 304.5q2.856.357 4 3-2.163 3.476 1 6.5l-1.5 1.5q-2.589-1.614-5.5-.5.834.574 1 1.5-3.373-.87-5-4 13.885.265 1.5-2-2.077.022-3.5 1-2.11-.71-2-3 5.684.738 2-2.5 2.503-.183 5 1-1.817 1.34 0 2.5 1.5-2 3 0 1.749-2.5 0-5" style="opacity:1"/><path fill="#615236" d="M212.5 302.5a24.8 24.8 0 0 1 5 8q4.5 3.5 8 8-2.276.016-3.5 2v-4q-1.799 4.06-5.5 2-1.533.533-2 2h-1q.362-5.248-2.5-1-.926-1.423.5-2.5-4.143-1.616-5 2.5h-2a28 28 0 0 0-4-1.5 29.5 29.5 0 0 0 4.5-2.5q1.124-1.702-.5-3-2.442.118-5 1v-2q7.563 1.493 7-6h-3v-1q2.313-1.201 5-1v6q2.951.359 5.5-1a50 50 0 0 1-1.5-6" style="opacity:1"/><path fill="#e9b056" d="M224.5 311.5q1.423-.978 3.5-1 12.385 2.265-1.5 2z" style="opacity:1"/><path fill="#5d412d" d="M285.5 305.5q-2.472 3.558 2 4-.456 3.444-3 1 .098-.658-.5-1-1.96 2.538-4.5 4a35.2 35.2 0 0 1 6-8" style="opacity:1"/><path fill="#a08147" d="M291.5 308.5v2a4.93 4.93 0 0 0-3 .5l1 1q-2.429.354-3 2.5-1.356 1.063-1 3-1.488.258-2-1 1.442-2.647 1-6 2.544 2.444 3-1 2.188.1 4-1" style="opacity:1"/><path fill="#f4bf5a" d="M291.5 310.5q1.426 2.128 1 5a19.2 19.2 0 0 1-6-1q.571-2.146 3-2.5l-1-1a4.93 4.93 0 0 1 3-.5" style="opacity:1"/><path fill="#eab858" d="M207.5 310.5a8.4 8.4 0 0 1 4 .5q-1.26 2.5 1.5.5 1 1.5 0 3-3.208 1.904-6.5 0a6.85 6.85 0 0 0 1-4" style="opacity:1"/><path fill="#efbb59" d="M217.5 310.5q.822 2.84 3 5a9.86 9.86 0 0 1-6 1 18.5 18.5 0 0 1 .5-6q1.155-1.647 2.5 0" style="opacity:1"/><path fill="#deaa66" d="M236.5 307.5q.5 1.5 2 2a9.1 9.1 0 0 0 1 5l7 4-1.5 1q-2.235-1.225-4.5-2.5-4.779.17-9-.5-.166-.926-1-1.5 2.911-1.114 5.5.5l1.5-1.5q-3.163-3.024-1-6.5" style="opacity:1"/><path fill="#635231" d="M300.5 311.5v2q-12.602-2.409-2 4.5-7.902 2.668 0 5-3.482 1.255-7 1 3.156-2.754 1-6.5-4.07-1.907-6 2.5.389 1.892 2 3-2.41 1.573-2 4.5h-3v-1q3.536-2.732 1-7-4.378-2.148-4 3h-1a9.1 9.1 0 0 0-1-5q2.318-1.428 5-1 .512 1.258 2 1 3.444-.456 1-3a19.2 19.2 0 0 0 6 1q.426-2.872-1-5v-2q-.428-2.682 1-5 1.57 2.133 0 4.5.389 1.892 2 3 2.96.743 6 .5" style="opacity:1"/><path fill="#211e16" d="M286.5 314.5q2.444 2.544-1 3-.356-1.937 1-3" style="opacity:1"/><path fill="#6a482f" d="m276.5 316.5-2 4-2-1q1.144-2.643 4-3" style="opacity:1"/><path fill="#ddaf56" d="M284.5 310.5q.442 3.353-1 6-2.682-.428-5 1a9.1 9.1 0 0 1 1 5q.197 1.314-1 2-1.532-2.532-4-4l2-4a6.55 6.55 0 0 1 3-3q2.54-1.462 4.5-4 .598.342.5 1" style="opacity:1"/><path fill="#eab758" d="M213.5 320.5q-2.934 2.472-7 2v-3q.857-4.116 5-2.5-1.426 1.077-.5 2.5 2.862-4.248 2.5 1" style="opacity:1"/><path fill="#716145" d="M229.5 321.5q3.261.375 5 3a5.73 5.73 0 0 1-3-1q-.925-.166-1.5-1a25 25 0 0 0-.5 7h-2a100 100 0 0 1 2-8" style="opacity:1"/><path fill="#f3f3f3" d="M179.5 345.5a6.55 6.55 0 0 0-3 3q-1.815.648-3 2-2.398-.401-4 1l-2-1q-1.76-3.006-5-4.5 2.19-1.217 1-2.5a15 15 0 0 0-3.5 3q.618 3.743-.5 7a125.2 125.2 0 0 0-23-23q2.128-1.426 5-1 3.265.13 6 2 1.119-6.012-3-11l1-1a140.5 140.5 0 0 1 22.5 22q2.68-3.26 6.5-3.5a18.8 18.8 0 0 1 5.5 4.5q.705 1.615-.5 3" style="opacity:1"/><path fill="#e1b258" d="M225.5 318.5q-1.31 3.579-4.5 6a4.46 4.46 0 0 0-1.5-2q-2.529 2.035-5 4v-6q.467-1.467 2-2 3.701 2.06 5.5-2v4q1.224-1.984 3.5-2" style="opacity:1"/><path fill="#f2f2f2" d="M357.5 329.5q3.352-.442 6 1a114.6 114.6 0 0 0-22 22q-1.237 1.329-3 1 1.145-3.962.5-8-2.76-2-1.5.5a7.3 7.3 0 0 0-3 2q2.176-.394 4 .5a6.85 6.85 0 0 0-1 4q-2.806-.538-4.5-3-1.224 1.984-3.5 2-1.063-1.356-3-1-4.564-3.065-7-8a47.7 47.7 0 0 1 6.5-5q3.029 2.615 6.5 3.5 9.75-11.75 21.5-21.5-2.042 5.163-2.5 11z" style="opacity:1"/><path fill="#e9b758" d="M283.5 326.5q-.789-2.596-3-4-.378-5.148 4-3 2.536 4.268-1 7" style="opacity:1"/><path fill="#191813" d="M293.5 295.5a32.5 32.5 0 0 0 7 3q3.894.832 7 3-6.304-.537-12-2.5a39 39 0 0 1 5 5.5l-2 2 4 5q-1.32 3.937 2 7-3.654 3.08 1 5.5a4.46 4.46 0 0 0-2 1.5 76.2 76.2 0 0 0 10 15.5q3.312.286 6 1.5-1.258.512-1 2a46 46 0 0 0-7-3 204 204 0 0 1-11-17.5l2-1q-4.812-3.67 0-5a9.2 9.2 0 0 1-2-4.5v-2a48.6 48.6 0 0 1-5-6.5 4.46 4.46 0 0 0 2-1.5q-3.174-2.85-4-7z" style="opacity:1"/><path fill="#866d40" d="M204.5 319.5h2v3q4.066.472 7-2h1v6l-2 1q-.928-5.464-6-3a43 43 0 0 1-5-1.5q2.889-.633 3-3.5" style="opacity:1"/><path fill="#d4a958" d="M204.5 319.5q-.111 2.867-3 3.5a43 43 0 0 0 5 1.5q5.072-2.464 6 3-3.196 1.221-7 1.5.686.621 1 1.5l-3 3a6.85 6.85 0 0 0-1-4q-2.574-1.573-4-4 .166-.926 1-1.5-1.884-.625-2-2.5 1.467-.467 2-2-3.228-2.724 0-6 2.558-.882 5-1 1.624 1.298.5 3a29.5 29.5 0 0 1-4.5 2.5q2.101.615 4 1.5" style="opacity:1"/><path fill="#143036" d="M213.5 361.5a65.7 65.7 0 0 1-14-6q3.216-7.158-4-10.5a199 199 0 0 1 11-12.5q3.87-3.389 8.5-2l3.5-5a12.4 12.4 0 0 1 2.5 4q1.124-4.886 5-8 1 3 0 6a713 713 0 0 0-12.5 34" style="opacity:1"/><path fill="#133036" d="M283.5 327.5q-.18 4.058 3 2a19.2 19.2 0 0 1 7 3.5q3.25 5.25 8.5 8.5a11.3 11.3 0 0 0 1.5 3.5 20.5 20.5 0 0 1-3.5 2.5 36.2 36.2 0 0 1-2.5 8q-2.844 1.162-5 3 0 1-1 1-2.639-.681-6 0a2285 2285 0 0 0-13-35.5q.817-4.519 3.5-.5.548 8.048 5 2 1.063 1.321 2.5 2" style="opacity:1"/><path fill="#929394" d="M141.5 329.5q-2.872-.426-5 1-1.184-.425-2-1.5 3.808-1.194 7 .5" style="opacity:1"/><path fill="#f4be5a" d="M231.5 323.5q.009 4.526 3 8-3.588 4.314-5-1v-1q-.245-3.535.5-7 .575.834 1.5 1" style="opacity:1"/><path fill="#583c2a" d="M249.5 300.5h1q-.25 14.508.5 29a31.6 31.6 0 0 1 9.5-3 27.2 27.2 0 0 1-5 3q-3.756.492-5.5 4-.634-2.184-2.5-1.5-2.344 1.139-3 3.5h-2a12 12 0 0 0-1-6q-1.237-1.329-3-1v-2q3.305.155 6 2v1q-1.914 1.329 0 3 2.128-.757 2-3h3z" style="opacity:1"/><path fill="#949495" d="M357.5 329.5q1.423-.978 3.5-1 2.522.162 3.5 2h-1q-2.648-1.442-6-1" style="opacity:1"/><path fill="#f0bb59" d="M238.5 328.5q1.763-.329 3 1a12 12 0 0 1 1 6q-1.98 2.163-5 2-2.4-4.95 1-9" style="opacity:1"/><path fill="#e7b658" d="M244.5 329.5h2q.128 2.243-2 3-1.914-1.671 0-3" style="opacity:1"/><path fill="#edb958" d="M255.5 329.5q1.725 2.65-2 3.5 1.311 5.066-4 7.5a44 44 0 0 0-2-1q-.5-1.5-2-2 .257-1.488-1-2 .656-2.361 3-3.5 1.866-.684 2.5 1.5 1.744-3.508 5.5-4" style="opacity:1"/><path fill="#846d42" d="M231.5 323.5q1.337.915 3 1 2.48.24 4 2v2q-3.4 4.05-1 9a20.7 20.7 0 0 1-3.5-4q-1.062 1.321-2.5 2-2.202-1.919-2-5 1.412 5.314 5 1-2.991-3.474-3-8" style="opacity:1"/><path fill="#f9c35a" d="M234.5 325.5q4.91 1.318 1 4-1.393-1.783-1-4" style="opacity:1"/><path fill="#efba58" d="M268.5 322.5q2.605 3.762 2.5 9l1-3a1910 1910 0 0 1 12.5 32l-2 2a51.6 51.6 0 0 0-7 1q-1.836-10.001-6-19v-4q1.438.679 2.5 2a22.7 22.7 0 0 0 3 7q-.096-6.883-3.5-13a28 28 0 0 1-1.5-4q-.417 1.374-1.5 2-3.285-1.311-3-5a25.7 25.7 0 0 1 3-7" style="opacity:1"/><path fill="#1f1b14" d="M228.5 329.5h1v1q-.202 3.081 2 5l-2 2-1-2z" style="opacity:1"/><path fill="#eebb59" d="M237.5 337.5a11.74 11.74 0 0 1-3 5h-3v-7q1.438-.679 2.5-2a20.7 20.7 0 0 0 3.5 4" style="opacity:1"/><path fill="#f4be59" d="M268.5 335.5q.303 3.675-1 7-6.346-1.522-3.5-7 1.915-.858 4.5 0" style="opacity:1"/><path fill="#715d38" d="M268.5 322.5a25.7 25.7 0 0 0-3 7q-.285 3.689 3 5v1q-2.585-.858-4.5 0-2.846 5.478 3.5 7-.5 1.5-2 2-2.504-5.39-3.5 0l-1-2a15.7 15.7 0 0 1-2.5 4q2.035 2.529 4 5h-1a14.7 14.7 0 0 1-3.5-3q-1.112 1.712-2.5 0-4.48 1.942-2 6-1.437-.679-2.5-2a2.43 2.43 0 0 0-.5 2 8.94 8.94 0 0 1-3-4q4.097 1.311 6.5-3-.201-2.534-1.5-5-1.857-.64-3 0-1.577-1.083-2-3 .975.456 2 1 5.311-2.434 4-7.5 3.725-.85 2-3.5a27.2 27.2 0 0 0 5-3q3.523-2.761 8-4" style="opacity:1"/><path fill="#ecb959" d="M265.5 329.5q-4.164-.617-2 2.5-.899 8.844-6.5 2.5-.354-2.7 1.5-5l6-4q1.393 1.783 1 4" style="opacity:1"/><path fill="#1a1814" d="m272.5 319.5 2 1q2.468 1.468 4 4 1.197-.686 1-2h1q2.211 1.404 3 4v1q-1.437-.679-2.5-2-4.452 6.048-5-2-2.683-4.019-3.5.5a2285 2285 0 0 1 13 35.5q3.361-.681 6 0a31.7 31.7 0 0 1-6 2q0-1-1-1a1910 1910 0 0 0-12.5-32l-1 3q.105-5.238-2.5-9 1.404-2.211 4-3" style="opacity:1"/><path fill="#9b804f" d="m228.5 335.5 1 2v2q-2.454 1.874-3.5 5-.47-5.037 2.5-9" style="opacity:1"/><path fill="#e9b759" d="M198.5 325.5q1.426 2.427 4 4a6.85 6.85 0 0 1 1 4 116.5 116.5 0 0 0-10 11q1.382 3.384 5 3a9.1 9.1 0 0 0 1 5q-1.237 1.329-3 1-1.226-2.967-4.5-3a27.1 27.1 0 0 0-7.5 4q.329-1.763-1-3-1.344 1.509-2 0 1.011-4.011 5-5-.849-1.187-2.5 0-1.545-.504-1.5-2 10.183-5.468 13.5-17 1.063-1.321 2.5-2" style="opacity:1"/><path fill="#e3b359" d="M300.5 313.5a9.2 9.2 0 0 0 2 4.5q-4.812 1.33 0 5l-2 1a204 204 0 0 0 11 17.5q-.263 6.24 6 7 .792 2.021.5 4-2.574-1.579-3 2-1.006-1.129-2.5-1-.71-2.11-3-2-3.87-2.274-6 2h-3q-1.383-5.974 4.5-7 1-1.5 0-3a29 29 0 0 0-9-9q-.77-3.032-3.5-4.5l1-1q-3.63-.435-7-1.5-.41-2.927 2-4.5-1.611-1.108-2-3 1.93-4.407 6-2.5 2.156 3.746-1 6.5 3.518.255 7-1-7.902-2.332 0-5-10.602-6.909 2-4.5" style="opacity:1"/><path fill="#171613" d="M225.5 318.5q2.856.357 4 3a100 100 0 0 0-2 8 790 790 0 0 0-12 30l-2 2a713 713 0 0 1 12.5-34q1-3 0-6-3.876 3.114-5 8a12.4 12.4 0 0 0-2.5-4l-3.5 5q-4.63-1.389-8.5 2a199 199 0 0 0-11 12.5q7.216 3.342 4 10.5-2.29.11-3-2 1.763.329 3-1a9.1 9.1 0 0 1-1-5q-3.618.384-5-3a116.5 116.5 0 0 1 10-11l3-3a3.65 3.65 0 0 0-1-1.5q3.804-.279 7-1.5l2-1q2.471-1.965 5-4a4.46 4.46 0 0 1 1.5 2q3.19-2.421 4.5-6" style="opacity:1"/><path fill="#24231e" d="M283.5 327.5h3q3.37 1.065 7 1.5l-1 1q2.73 1.468 3.5 4.5a29 29 0 0 1 9 9q1 1.5 0 3-5.883 1.026-4.5 7h3q-4.877 3.686-11 5 2.156-1.838 5-3a36.2 36.2 0 0 0 2.5-8 20.5 20.5 0 0 0 3.5-2.5 11.3 11.3 0 0 1-1.5-3.5q-5.25-3.25-8.5-8.5a19.2 19.2 0 0 0-7-3.5q-3.18 2.058-3-2" style="opacity:1"/><path fill="#f5bd57" d="M82.5 345.5q4.365 1.365 6 6-4.67 8.316-7.5 17l13-9a31.2 31.2 0 0 1 4.5 6 280 280 0 0 1-26 19 30.4 30.4 0 0 1-5-7.5 340 340 0 0 0 7.5-16.5 87.4 87.4 0 0 1-12.5 9 576 576 0 0 1-5-6q12.528-9.037 25-18" style="opacity:1"/><path fill="#685941" d="M179.5 345.5v3h-3a6.55 6.55 0 0 1 3-3" style="opacity:1"/><path fill="#f4be59" d="M268.5 344.5a223 223 0 0 1 6 20q-2.872-.426-5 1h-3a178 178 0 0 1-2-13 87 87 0 0 1 4-8" style="opacity:1"/><path fill="#9d8355" d="M268.5 344.5h1q4.164 8.999 6 19a51.6 51.6 0 0 1 7-1q-5.858 3.564-13 3 2.128-1.426 5-1a223 223 0 0 0-6-20" style="opacity:1"/><path fill="#8a8b8c" d="M338.5 353.5q-1 0-1-1a6.85 6.85 0 0 1 1-4q-1.824-.894-4-.5a7.3 7.3 0 0 1 3-2q-1.26-2.5 1.5-.5.645 4.038-.5 8" style="opacity:1"/><path fill="#98999a" d="M167.5 350.5h-2q-1.448-3.877-4-1.5.208 1.951 2 2.5l-3 3q-.91-.186-1-1 1.118-3.257.5-7a15 15 0 0 1 3.5-3q1.19 1.283-1 2.5 3.24 1.494 5 4.5" style="opacity:1"/><path fill="#b89655" d="M271.5 336.5q3.404 6.117 3.5 13a22.7 22.7 0 0 1-3-7q-1.062-1.321-2.5-2 1.776-1.782 0-3.5a2.43 2.43 0 0 1 2-.5" style="opacity:1"/><path fill="#f7f7f7" d="m165.5 350.5-2 1q-1.792-.549-2-2.5 2.552-2.377 4 1.5" style="opacity:1"/><path fill="#6f6554" d="M319.5 342.5q2.436 4.935 7 8a31.8 31.8 0 0 1-7-2.5l1-1q-1.321-1.062-2-2.5-.258-1.488 1-2" style="opacity:1"/><path fill="#534b3e" d="M309.5 351.5q-3.278.306-6 2 2.13-4.274 6-2" style="opacity:1"/><path fill="#1d2021" d="M363.5 330.5h1a196 196 0 0 0-23 24q-5 1.379-8.5-3a611 611 0 0 1-3.5 8v-8q2.276-.016 3.5-2 1.694 2.462 4.5 3 0 1 1 1 1.763.329 3-1a114.6 114.6 0 0 1 22-22" style="opacity:1"/><path fill="#ededee" d="M196.5 353.5q.71 2.11 3 2a65.7 65.7 0 0 0 14 6q6.457 3.37 14 4 18.388 5.226 37 1h1q2.398.401 4-1 7.142.564 13-3 1.937.356 3-1a31.7 31.7 0 0 0 6-2q1 0 1-1 6.123-1.314 11-5 2.722-1.694 6-2 .71 2.11 3 2 2.365 3.825 6 6-2.185 3.427-6 5.5a148 148 0 0 1-21 9.5q-5.842 1.443-11 4h-1a178.1 178.1 0 0 1-51 2h-2q-2.571-1.857-6-2-4.216-1.463-9-2-1.812-1.1-4-1a249 249 0 0 0-19-9q-2.47-2.74-6-4a44 44 0 0 0-1-2q2.115-1.604 3-4a39.7 39.7 0 0 1 7-5 16.1 16.1 0 0 0 5 2" style="opacity:1"/><path fill="#5f5544" d="M309.5 351.5q2.29-.11 3 2-2.29.11-3-2" style="opacity:1"/><path fill="#897349" d="M173.5 350.5q.282 2.405-1.5 4 .116-1.857-.5-3-1.393 1.783-1 4-1.401-1.602-1-4 1.602-1.401 4-1" style="opacity:1"/><path fill="#685d4c" d="M196.5 353.5a16.1 16.1 0 0 1-5-2 39.7 39.7 0 0 0-7 5v-2a27.1 27.1 0 0 1 7.5-4q3.274.033 4.5 3" style="opacity:1"/><path fill="#f5bd57" d="M408.5 352.5a296 296 0 0 1 26 16q1.33 3.924-2 7-.752 1.532-2 .5l-23-15q-1.611-1.108-2-3a44 44 0 0 0 3-5.5" style="opacity:1"/><path fill="#c8a055" d="M182.5 344.5q-.045 1.496 1.5 2 1.651-1.187 2.5 0-3.989.989-5 5 .656 1.509 2 0 1.329 1.237 1 3v2q-3 1-4 4a5.73 5.73 0 0 1-3 1 29.8 29.8 0 0 1-7-2v-4q-.393-2.217 1-4 .616 1.143.5 3 1.782-1.595 1.5-4 1.185-1.352 3-2h3v-3a5.73 5.73 0 0 0 3-1" style="opacity:1"/><path fill="#a0834e" d="M317.5 348.5a554 554 0 0 1 6 9 11.4 11.4 0 0 1-2.5 2q-2.768-9.876-2.5 0-3.635-2.175-6-6 1.494-.129 2.5 1 .426-3.579 3-2 .292-1.979-.5-4" style="opacity:1"/><path fill="#f4be59" d="M262.5 354.5a97 97 0 0 1 3 12h-8q.384-3.438-1-6.5 3.582-1.298 4.5 2.5.96-2.648-.5-5-.11-2.29 2-3" style="opacity:1"/><path fill="#7c673f" d="M264.5 352.5q.76 6.54 2 13h3q-1.602 1.401-4 1a97 97 0 0 0-3-12z" style="opacity:1"/><path fill="#efbb59" d="M227.5 329.5h1v6q-2.97 3.963-2.5 9 1.046-3.126 3.5-5 3.084 5.598 4.5 12a23.9 23.9 0 0 1 7.5 7.5q4.844.534 4.5 5.5l1-2a7.25 7.25 0 0 0 2.5 2q2.529-2.035 5-4 1.857 2.571 2 6-14.531.18-29-1-4.672-2.183-10-3.5-1.884-.625-2-2.5a790 790 0 0 1 12-30" style="opacity:1"/><path fill="#493d27" d="M271.5 336.5a2.43 2.43 0 0 0-2 .5q1.776 1.718 0 3.5v4h-1a87 87 0 0 0-4 8l-2 2q-2.11.71-2 3-3.58.618-6 3-2.471 1.965-5 4a7.25 7.25 0 0 1-2.5-2l-1 2q.344-4.966-4.5-5.5a23.9 23.9 0 0 0-7.5-7.5q-1.416-6.402-4.5-12v-2l2-2v7h3v1q-.245 3.535.5 7 1.006 1.129 2.5 1 0 1 1 1 1.098 4.677 5 4h1q4.538 10.343 10 1a5.58 5.58 0 0 1-1-3q6.33 6.291 8-3h1q3.482-2.385 3-7 1.5-.5 2-2 1.303-3.325 1-7v-1q1.083-.626 1.5-2 .615 2.101 1.5 4" style="opacity:1"/><path fill="#f1bc58" d="M253.5 354.5a5.58 5.58 0 0 0 1 3q-5.462 9.343-10-1a14.7 14.7 0 0 0 3.5-3 23 23 0 0 1 2 5 8.4 8.4 0 0 0 .5-4 2.43 2.43 0 0 1 .5-2q1.063 1.321 2.5 2" style="opacity:1"/><path fill="#eab757" d="M261.5 351.5q-1.67 9.291-8 3-2.48-4.058 2-6 1.388 1.712 2.5 0a14.7 14.7 0 0 0 3.5 3" style="opacity:1"/><path fill="#f2bd59" d="M244.5 347.5a15.4 15.4 0 0 0 2 4.5 21 21 0 0 1-3 4.5q-3.902.677-5-4 2.559-4.161 6-5" style="opacity:1"/><path fill="#9d7f47" d="M245.5 337.5q1.5.5 2 2 .423 1.917 2 3-3.302.538-4 4 1.695 1.683 2 4a8.94 8.94 0 0 0 3 4 8.4 8.4 0 0 1-.5 4 23 23 0 0 0-2-5 14.7 14.7 0 0 1-3.5 3h-1a21 21 0 0 0 3-4.5 15.4 15.4 0 0 1-2-4.5v-2q3.078-3.713 1-8" style="opacity:1"/><path fill="#edb958" d="M265.5 344.5q.482 4.615-3 7-1.965-2.471-4-5a15.7 15.7 0 0 0 2.5-4l1 2q.996-5.39 3.5 0" style="opacity:1"/><path fill="#f0bc59" d="M252.5 342.5q1.299 2.466 1.5 5-2.403 4.311-6.5 3-.305-2.317-2-4 .698-3.462 4-4 1.143-.64 3 0" style="opacity:1"/><path fill="#efbb58" d="M237.5 351.5q-1.494.129-2.5-1a25 25 0 0 1-.5-7q2.388-1.653 2.5 2 1.28-2.437 3-1 1 2 0 4a10.5 10.5 0 0 0-2.5 3" style="opacity:1"/><path fill="#f2bd59" d="M252.5 342.5q.189-4.452 4.5-6 6.694 4.692-.5 9a514 514 0 0 0-4-3" style="opacity:1"/><path fill="#f3be59" d="M245.5 337.5q2.078 4.287-1 8-.925.166-1.5 1-7.718-8.082 2.5-9" style="opacity:1"/><path fill="#79633b" d="M242.5 335.5h2q1.257.512 1 2-10.218.918-2.5 9 .575-.834 1.5-1v2q-3.441.839-6 5-1 0-1-1a10.5 10.5 0 0 1 2.5-3q1-2 0-4-1.72-1.437-3 1-.112-3.653-2.5-2v-1a11.74 11.74 0 0 0 3-5q3.02.163 5-2" style="opacity:1"/><path fill="#505152" d="M302.5 358.5q3.278 2.002 4.5 5-3.623-1.367-4.5-5" style="opacity:1"/><path fill="#c9a054" d="M311.5 341.5a46 46 0 0 1 7 3q.679 1.438 2 2.5l-1 1a31.8 31.8 0 0 0 7 2.5q1.937-.356 3 1v8q-5.85 1.272-10.5 5l-1.5-1q2.82-1.822 1-4-.268-9.876 2.5 0a11.4 11.4 0 0 0 2.5-2 554 554 0 0 0-6-9q-6.263-.76-6-7" style="opacity:1"/><path fill="#4b463f" d="M184.5 356.5q-.885 2.396-3 4 .544 1.025 1 2-2 0-2-2 1-3 4-4" style="opacity:1"/><path fill="#4b4b4c" d="M195.5 361.5q-1.935.837-2.5 3-.502-4.02 2.5-7 1.188 1.8 0 4" style="opacity:1"/><path fill="#928369" d="M215.5 359.5q.116 1.875 2 2.5 5.328 1.317 10 3.5-7.543-.63-14-4z" style="opacity:1"/><path fill="#c19c57" d="M260.5 357.5q1.46 2.352.5 5-.918-3.798-4.5-2.5 1.384 3.062 1 6.5h-1q-.143-3.429-2-6 2.42-2.382 6-3" style="opacity:1"/><path fill="#7d705a" d="M284.5 360.5q1 0 1 1-1.063 1.356-3 1z" style="opacity:1"/><path fill="#947843" d="M180.5 360.5q0 2 2 2-1.056 2.766-4 1.5-1.129-1.006-1-2.5a5.73 5.73 0 0 0 3-1" style="opacity:1"/><path fill="#484849" d="M200.5 360.5q.814.09 1 1-1.503 3.015-3 6l-1-1z" style="opacity:1"/><path fill="#5f6060" d="M203.5 361.5q1.314-.197 2 1-5.712 11.798-2-1" style="opacity:1"/><path fill="#656566" d="M195.5 361.5q1.438-.679 2.5-2 .369 3.638-2.5 6-.609-1.586 0-4" style="opacity:1"/><path fill="#525253" d="M294.5 361.5a26.5 26.5 0 0 0 6 3.5q2.044 3.194-1 1.5a4.46 4.46 0 0 0-1.5 2 17.34 17.34 0 0 1-3.5-7" style="opacity:1"/><path fill="#4d4d4e" d="M210.5 364.5q2.379 2.371 3 6l-1 1a18.4 18.4 0 0 1-2-7" style="opacity:1"/><path fill="#999081" d="M227.5 365.5q14.469 1.18 29 1h8q-18.612 4.226-37-1" style="opacity:1"/><path fill="#4b4c4c" d="M216.5 366.5q1.63.18 2 2 1.092 2.482.5 5a18.9 18.9 0 0 1-2.5-7" style="opacity:1"/><path fill="#454546" d="M291.5 363.5q3.166 2.742 2.5 7a29.3 29.3 0 0 1-2.5-7" style="opacity:1"/><path fill="#525253" d="M206.5 363.5a2.43 2.43 0 0 1 2 .5q-5.384 12.858-2-.5" style="opacity:1"/><path fill="#4f4f50" d="M279.5 368.5q2.077 1.61 3.5 4 1.032 1.248-.5 2a12.8 12.8 0 0 1-3-6" style="opacity:1"/><path fill="#a0a0a1" d="M243.5 370.5h9q-.687 4.341 2 7.5-1.163 1.845-3 1-2.142-2.874-3-6.5a13.1 13.1 0 0 0-1 7h-3a29.2 29.2 0 0 0-1-9" style="opacity:1"/><path fill="#525253" d="M283.5 366.5q3.757 2.529 2.5 7a29.3 29.3 0 0 1-2.5-7" style="opacity:1"/><path fill="#3e3e3f" d="M257.5 371.5q4.081 1.794 3.5 6a30 30 0 0 1-3.5-6" style="opacity:1"/><path fill="#5f5f60" d="M222.5 368.5q2.289.907 3 3.5-1.905 1.35-3 3.5-1.294-3.407 0-7" style="opacity:1"/><path fill="#303031" d="M272.5 375.5h-1q-1.542-9.738 1 0" style="opacity:1"/><path fill="#555556" d="M228.5 369.5q1.496-.045 2 1.5 1.937 3.075 1.5 6.5-1.276-4.669-3.5-1l-1-1.5a13 13 0 0 0 1-5.5" style="opacity:1"/><path fill="#494a4a" d="M237.5 371.5q2.739 2.932 1.5 7-1.803-3.266-1.5-7" style="opacity:1"/><path fill="#949596" d="M271.5 375.5h1q2.038-.76 3-3 1.393 1.783 1 4-2.872.426-5-1" style="opacity:1"/><path fill="#f0bb58" d="M207.5 375.5q2.188-.1 4 1l-4.5 9a17.8 17.8 0 0 0 4.5-5.5q4.276-1.933 9-1.5.166.926 1 1.5-2.623 4.046-3.5 8.5a48.5 48.5 0 0 0 4.5-7q1.783-1.393 4-1h2q1.144 1.152 3 1.5-1.58 2.082-.5 4.5l1.5-3q5-2 10 0-1.572 2.934-1.5 6a69 69 0 0 1 4.5-6.5 4.93 4.93 0 0 1 3-.5v3q-3.896 13.945-18 11 2.459-2.124 2.5-5-4.344 3.05-9.5 4-2.217.393-4-1a32 32 0 0 1 4.5-5q1-1 0-2-6.026 7.64-15.5 5.5 4.16-3.096 5.5-7.5-5.316 4.86-12.5 6-1.763.329-3-1a57.4 57.4 0 0 0 9-15" style="opacity:1"/><path fill="#747475" d="M263.5 371.5q1.185 1.663 1.5 4 2.109 1.752 3.5-1 1.329 1.237 1 3c-5 1-7-1-6-6" style="opacity:1"/><path fill="#eeba58" d="M291.5 375.5q3.849 8.175 10 15-10.167 2.526-16.5-6 1.855 4.914 6.5 8.5-6.285 1.215-12-1.5a31.5 31.5 0 0 0-4.5-5q.115 3.407 3.5 5l2 3q-1.602 1.401-4 1-7.068-.41-11.5-6 1.38 3.969 4.5 7.5-15.451 2.776-19-12.5.514-2.588 3-1.5a36 36 0 0 1 3.5 4.5q.892-2.098-.5-4 4.419-1.732 9-.5 4.134 7.033 2-1l6-1.5q4.766 3.017 7.5 8-.523-4.356-3.5-8a31 31 0 0 0 2-2h1q5.043-.645 8.5 3 .5-2.32-1.5-4a16.3 16.3 0 0 1 4-2" style="opacity:1"/><path fill="#907a54" d="M291.5 374.5v1a16.3 16.3 0 0 0-4 2q2 1.68 1.5 4-3.457-3.645-8.5-3 5.158-2.557 11-4" style="opacity:1"/><path fill="#9d8458" d="M211.5 376.5q4.784.537 9 2-4.724-.433-9 1.5a17.8 17.8 0 0 1-4.5 5.5z" style="opacity:1"/><path fill="#887554" d="M279.5 378.5a31 31 0 0 1-2 2q2.977 3.644 3.5 8-2.734-4.983-7.5-8l-6 1.5q2.134 8.033-2 1-4.581-1.232-9 .5 1.392 1.902.5 4a36 36 0 0 0-3.5-4.5q-2.486-1.088-3 1.5l-2 1v-3a4.93 4.93 0 0 0-3 .5 69 69 0 0 0-4.5 6.5q-.072-3.066 1.5-6-5-2-10 0l-1.5 3q-1.08-2.418.5-4.5-1.856-.348-3-1.5a178.1 178.1 0 0 0 51-2" style="opacity:1"/><path fill="#171816" d="M188.5 366.5a249 249 0 0 1 19 9 57.4 57.4 0 0 1-9 15q1.237 1.329 3 1 2.619.752 3 2a25 25 0 0 1-7-.5 7.25 7.25 0 0 1-2-2.5 96 96 0 0 0 7.5-9q1.952-2.853 2-6-8.897-3.569-16.5-9" style="opacity:1"/><path fill="#987e4e" d="M220.5 378.5q3.429.143 6 2-2.217-.393-4 1a48.5 48.5 0 0 1-4.5 7q.877-4.454 3.5-8.5-.834-.574-1-1.5" style="opacity:1"/><path fill="#2f271a" d="M223.5 395.5q-1.161.97-3 1-7.665-2.644-16-2v-1q-.381-1.248-3-2 7.184-1.14 12.5-6-1.34 4.404-5.5 7.5 9.474 2.14 15.5-5.5 1 1 0 2a32 32 0 0 0-4.5 5q1.783 1.393 4 1" style="opacity:1"/><path fill="#a97b45" d="M375.5 392.5q3.161-1.452 7-1 .356 1.937-1 3-2.127-2.712-6-2" style="opacity:1"/><path fill="#f4bc56" d="M375.5 392.5q3.873-.712 6 2v4q-7.773-.723-8 7a100 100 0 0 0 13-4q12.948 2.676 8.5 15-5.567 9.284-16.5 8-.245-3.535.5-7a83 83 0 0 0 7.5-2.5q2.305-1.665 2-4.5-6.961 1.468-14 3-10.962-1.891-8.5-13 3.197-5.955 9.5-8" style="opacity:1"/><path fill="#f6be57" d="M125.5 394.5a76.5 76.5 0 0 1 14.5 11q2.87 5.957 0 12l-9.5 11.5q-5.308 2.256-11 1-6.969-3.98-12-10a693 693 0 0 1 18-25.5" style="opacity:1"/><path fill="#191815" d="M318.5 359.5q1.82 2.178-1 4l1.5 1q4.65-3.728 10.5-5-6.355 6.917-16 6.5a140 140 0 0 1-20 10q4.107 8.35 11 14.5-3.625 4.53-9 2-3.249-.106-1 2-5.52 1.896-11 0-1.509.656 0 2-5.245 1.835-10.5 0-15.14 7.785-23-8-6.827 13.038-21.5 10.5-2-1 0-2a40.5 40.5 0 0 0-8.5.5 359 359 0 0 0-15.5-3q8.335-.644 16 2 1.839-.03 3-1 5.156-.95 9.5-4-.041 2.876-2.5 5 14.104 2.945 18-11l2-1q3.549 15.276 19 12.5-3.12-3.531-4.5-7.5 4.432 5.59 11.5 6 2.302 1.932 5 0-.186-.91-1-1l-2-3h1q5.715 2.715 12 1.5-4.645-3.586-6.5-8.5 6.333 8.526 16.5 6-6.151-6.825-10-15v-1a148 148 0 0 0 21-9.5q3.815-2.073 6-5.5" style="opacity:1"/><path fill="#67522a" d="M280.5 394.5q.814.09 1 1-2.698 1.932-5 0 2.398.401 4-1" style="opacity:1"/><path fill="#59492d" d="M279.5 391.5h-1q-3.385-1.593-3.5-5a31.5 31.5 0 0 1 4.5 5" style="opacity:1"/><path fill="#56322f" d="M127.5 406.5q5.797.534 5.5 6l-7.5 9.5q-4.938 1.344-7-3.5 4.536-6.027 9-12" style="opacity:1"/><path fill="#f6be57" d="M325.5 422.5h5q1.294 3.593 0 7-6.007 2.004-11 5.5a6.2 6.2 0 0 0 2 3.5q5.517-3.76 12-3.5a14.8 14.8 0 0 1 2 6.5 36.5 36.5 0 0 0-11 3.5q-1.72 2.856 1.5 4.5a201 201 0 0 1 10.5-4q4.578 1.149 5 6a145 145 0 0 1-22 8 210.6 210.6 0 0 0-11-28.5 191 191 0 0 1 17-8.5" style="opacity:1"/><path fill="#f5bd57" d="M182.5 429.5q12.599-2.592 19.5 8 .418 12.749-6.5 23.5-14.89 7.036-22.5-7.5.496-8.066 3-16 1.957-5.192 6.5-8" style="opacity:1"/><path fill="#55312f" d="M185.5 437.5a18.5 18.5 0 0 1 6 .5q2.865.612 3 3.5-2.4 6.452-4.5 13-7.255 3.001-8.5-4.5.978-6.692 4-12.5" style="opacity:1"/><path fill="#f8c057" d="M271.5 461.5v9h-8a109.6 109.6 0 0 1-10.5-17q.302 4.916.5 10v8h-7q.442-3.352-1-6a305 305 0 0 0-1-26 32.5 32.5 0 0 1 8 .5 65.7 65.7 0 0 1 9 14.5l2.5 5q.126-7.246-1.5-14v-7h8q.856 11.481 1 23" style="opacity:1"/><path fill="#b78748" d="M262.5 445.5q1.626 6.754 1.5 14l-2.5-5q1.465-4.18 1-9" style="opacity:1"/><path fill="#a97b45" d="M253.5 463.5q1.465 4.18 1 9h-9v-7q1.442 2.648 1 6h7z" style="opacity:1"/><path fill="#a17343" d="M271.5 461.5q1.469 4.687 1 10-4.82.465-9-1h8z" style="opacity:1"/><path fill="#c4924b" d="M275.5 487.5q-11.652 2.337-24 2-9.264 0-18-1a577 577 0 0 0 42-1" style="opacity:1"/></svg>