<?xml version="1.0" encoding="UTF-8"?>
<!DOCTYPE svg PUBLIC "-//W3C//DTD SVG 1.1//EN" "http://www.w3.org/Graphics/SVG/1.1/DTD/svg11.dtd">
<svg xmlns="http://www.w3.org/2000/svg" version="1.1" width="53px" height="53px" style="shape-rendering:geometricPrecision; text-rendering:geometricPrecision; image-rendering:optimizeQuality; fill-rule:evenodd; clip-rule:evenodd" xmlns:xlink="http://www.w3.org/1999/xlink">
<g><path style="opacity:0.58" fill="#f1bb56" d="M 17.5,-0.5 C 23.1667,-0.5 28.8333,-0.5 34.5,-0.5C 42.8333,3.16667 48.8333,9.16667 52.5,17.5C 52.5,23.1667 52.5,28.8333 52.5,34.5C 48.8333,42.8333 42.8333,48.8333 34.5,52.5C 28.8333,52.5 23.1667,52.5 17.5,52.5C 9.16667,48.8333 3.16667,42.8333 -0.5,34.5C -0.5,28.8333 -0.5,23.1667 -0.5,17.5C 3.16667,9.16667 9.16667,3.16667 17.5,-0.5 Z"/></g>
<g><path style="opacity:1" fill="#643e32" d="M 50.5,29.5 C 50.6602,27.8008 50.4935,26.1341 50,24.5C 49.5172,25.448 49.3505,26.448 49.5,27.5C 48.5,27.5 47.5,27.5 46.5,27.5C 46.5,26.1667 46.5,24.8333 46.5,23.5C 47.8333,23.5 49.1667,23.5 50.5,23.5C 50.5,22.5 50.5,21.5 50.5,20.5C 49.1667,20.5 47.8333,20.5 46.5,20.5C 49.2695,17.7984 48.6029,16.965 44.5,18C 45.2524,18.6708 45.5858,19.5041 45.5,20.5C 45.1667,20.5 44.8333,20.5 44.5,20.5C 38.9864,9.07021 30.3198,5.40354 18.5,9.5C 17.4168,9.53944 16.4168,9.87277 15.5,10.5C 14.7025,10.0431 14.3691,9.37644 14.5,8.5C 14.1667,8.5 13.8333,8.5 13.5,8.5C 12.8333,8.16667 12.1667,7.83333 11.5,7.5C 10.5,8.5 9.5,9.5 8.5,10.5C 7.26253,11.7434 7.59586,12.7434 9.5,13.5C 10.5223,13.1445 11.189,12.4778 11.5,11.5C 12.2389,11.369 12.9056,11.5357 13.5,12C 11.2663,13.6379 9.933,15.8045 9.5,18.5C 9.5,19.5 9.5,20.5 9.5,21.5C 9.16667,21.5 8.83333,21.5 8.5,21.5C 8.16667,21.5 7.83333,21.5 7.5,21.5C 7.5,20.8333 7.16667,20.5 6.5,20.5C 7.37677,17.7558 6.37677,17.0891 3.5,18.5C 3.86273,19.1835 4.19607,19.8501 4.5,20.5C 2.95186,20.8212 2.28519,21.8212 2.5,23.5C 3.5,23.5 4.5,23.5 5.5,23.5C 5.5,24.8333 5.5,26.1667 5.5,27.5C 4.5,27.5 3.5,27.5 2.5,27.5C 2.64945,26.448 2.48278,25.448 2,24.5C 1.50649,26.1341 1.33982,27.8008 1.5,29.5C -0.102599,15.5928 5.8974,6.09285 19.5,1C 34.7927,-0.938633 45.2927,5.22803 51,19.5C 51.8075,23.0267 51.6408,26.3601 50.5,29.5 Z"/></g>
<g><path style="opacity:1" fill="#d5a14f" d="M 32.5,4.5 C 34.2252,4.84254 34.7252,5.84254 34,7.5C 32.9614,6.75618 32.4614,5.75618 32.5,4.5 Z"/></g>
<g><path style="opacity:1" fill="#bc8b48" d="M 14.5,8.5 C 14.5858,7.5041 14.2524,6.67076 13.5,6C 16.309,3.94357 17.6423,4.7769 17.5,8.5C 16.5,8.5 15.5,8.5 14.5,8.5 Z"/></g>
<g><path style="opacity:1" fill="#cc994c" d="M 24.5,2.5 C 26.4646,2.94835 26.7979,3.94835 25.5,5.5C 24.6143,4.67504 24.281,3.67504 24.5,2.5 Z"/></g>
<g><path style="opacity:1" fill="#d5a14f" d="M 21.5,2.5 C 22.7759,3.3864 22.7759,4.3864 21.5,5.5C 20.4376,4.57537 20.4376,3.57537 21.5,2.5 Z"/></g>
<g><path style="opacity:1" fill="#c7954b" d="M 28.5,2.5 C 31.6741,2.95221 32.0075,3.95221 29.5,5.5C 28.6143,4.67504 28.281,3.67504 28.5,2.5 Z"/></g>
<g><path style="opacity:1" fill="#d8a34f" d="M 11.5,7.5 C 12.1667,7.83333 12.8333,8.16667 13.5,8.5C 12.0119,11.1864 11.3453,10.8531 11.5,7.5 Z"/></g>
<g><path style="opacity:1" fill="#b48446" d="M 36.5,5.5 C 40.0289,6.02974 40.3622,7.36307 37.5,9.5C 35.3576,8.56289 35.0243,7.22955 36.5,5.5 Z"/></g>
<g><path style="opacity:1" fill="#7f5f3d" d="M 11.5,7.5 C 11.3453,10.8531 12.0119,11.1864 13.5,8.5C 13.8333,8.5 14.1667,8.5 14.5,8.5C 14.3691,9.37644 14.7025,10.0431 15.5,10.5C 16.4168,9.87277 17.4168,9.53944 18.5,9.5C 15.1667,12.1667 12.1667,15.1667 9.5,18.5C 9.933,15.8045 11.2663,13.6379 13.5,12C 12.9056,11.5357 12.2389,11.369 11.5,11.5C 10.609,10.8902 9.60895,10.5569 8.5,10.5C 9.5,9.5 10.5,8.5 11.5,7.5 Z"/></g>
<g><path style="opacity:1" fill="#193338" d="M 35.5,40.5 C 35.4326,39.0413 35.7659,37.7079 36.5,36.5C 37.463,35.6365 37.463,34.9698 36.5,34.5C 35.5832,35.1272 34.5832,35.4606 33.5,35.5C 31.8958,34.713 31.2291,33.3797 31.5,31.5C 36.0614,31.4402 38.5614,29.1069 39,24.5C 39.755,21.6967 39.4217,19.0301 38,16.5C 36.6244,17.7051 35.4577,19.0384 34.5,20.5C 32.6203,20.2291 31.287,20.8958 30.5,22.5C 28.3862,21.216 27.3862,19.216 27.5,16.5C 25.901,16.2322 24.5676,16.5655 23.5,17.5C 22.2947,18.6719 22.2947,20.0052 23.5,21.5C 23.0431,22.2975 22.3764,22.6309 21.5,22.5C 20.4863,21.3263 19.153,20.6596 17.5,20.5C 15.1462,15.6757 13.4795,15.6757 12.5,20.5C 10.955,21.2297 10.1216,22.563 10,24.5C 9.51722,23.552 9.35055,22.552 9.5,21.5C 9.5,20.5 9.5,19.5 9.5,18.5C 12.1667,15.1667 15.1667,12.1667 18.5,9.5C 34.7089,6.55458 42.8756,13.2212 43,29.5C 41.9711,34.2409 39.4711,37.9075 35.5,40.5 Z"/></g>
<g><path style="opacity:1" fill="#866b42" d="M 44.5,20.5 C 45.5055,28.1441 43.5055,34.8107 38.5,40.5C 37.609,41.1098 36.609,41.4431 35.5,41.5C 35.5,41.1667 35.5,40.8333 35.5,40.5C 39.4711,37.9075 41.9711,34.2409 43,29.5C 42.8756,13.2212 34.7089,6.55458 18.5,9.5C 30.3198,5.40354 38.9864,9.07021 44.5,20.5 Z"/></g>
<g><path style="opacity:1" fill="#b88747" d="M 40.5,7.5 C 42.8918,8.74212 42.7251,10.0755 40,11.5C 39.805,10.1807 39.9717,8.84736 40.5,7.5 Z"/></g>
<g><path style="opacity:1" fill="#ba8948" d="M 8.5,10.5 C 9.60895,10.5569 10.609,10.8902 11.5,11.5C 11.189,12.4778 10.5223,13.1445 9.5,13.5C 7.59586,12.7434 7.26253,11.7434 8.5,10.5 Z"/></g>
<g><path style="opacity:1" fill="#ce9b4d" d="M 44.5,12.5 C 46.7388,14.0012 46.7388,15.3345 44.5,16.5C 43.3744,15.1916 43.3744,13.8583 44.5,12.5 Z"/></g>
<g><path style="opacity:1" fill="#daa550" d="M 5.5,15.5 C 6.25057,14.4265 7.25057,14.2599 8.5,15C 7.64767,16.7284 6.64767,16.895 5.5,15.5 Z"/></g>
<g><path style="opacity:1" fill="#c7954b" d="M 46.5,20.5 C 46.1667,20.5 45.8333,20.5 45.5,20.5C 45.5858,19.5041 45.2524,18.6708 44.5,18C 48.6029,16.965 49.2695,17.7984 46.5,20.5 Z"/></g>
<g><path style="opacity:1" fill="#c6944b" d="M 6.5,20.5 C 5.83333,20.5 5.16667,20.5 4.5,20.5C 4.19607,19.8501 3.86273,19.1835 3.5,18.5C 6.37677,17.0891 7.37677,17.7558 6.5,20.5 Z"/></g>
<g><path style="opacity:1" fill="#1e363a" d="M 12.5,20.5 C 12.6178,23.6883 13.4511,26.6883 15,29.5C 16.5843,30.8613 18.4176,31.528 20.5,31.5C 20.7709,33.3797 20.1042,34.713 18.5,35.5C 17.1526,34.9717 15.8193,34.805 14.5,35C 15.2438,36.0386 16.2438,36.5386 17.5,36.5C 17.5,37.1667 17.8333,37.5 18.5,37.5C 19.2905,38.4013 20.2905,39.0679 21.5,39.5C 22.6936,40.7773 24.3603,41.4439 26.5,41.5C 28.6397,41.4439 30.3064,40.7773 31.5,39.5C 32.1667,38.8333 32.8333,38.1667 33.5,37.5C 34.1667,37.5 34.5,37.1667 34.5,36.5C 35.1667,36.5 35.8333,36.5 36.5,36.5C 35.7659,37.7079 35.4326,39.0413 35.5,40.5C 35.5,40.8333 35.5,41.1667 35.5,41.5C 34.5084,41.3284 33.8417,41.6618 33.5,42.5C 28.4908,43.7523 23.4908,43.7523 18.5,42.5C 15.8587,40.1956 13.192,37.8623 10.5,35.5C 10.6716,34.5084 10.3382,33.8417 9.5,33.5C 8.83787,29.5341 8.50454,25.5341 8.5,21.5C 8.83333,21.5 9.16667,21.5 9.5,21.5C 9.35055,22.552 9.51722,23.552 10,24.5C 10.1216,22.563 10.955,21.2297 12.5,20.5 Z"/></g>
<g><path style="opacity:1" fill="#b18e4a" d="M 17.5,20.5 C 17.3379,22.5273 17.5045,24.5273 18,26.5C 18.8159,27.8228 19.9826,28.4894 21.5,28.5C 21.366,30.2915 21.6993,31.9582 22.5,33.5C 21.3995,34.6049 20.7329,35.9382 20.5,37.5C 19.8333,37.5 19.1667,37.5 18.5,37.5C 17.8333,37.5 17.5,37.1667 17.5,36.5C 18.1667,36.5 18.5,36.1667 18.5,35.5C 20.1042,34.713 20.7709,33.3797 20.5,31.5C 18.4176,31.528 16.5843,30.8613 15,29.5C 13.4511,26.6883 12.6178,23.6883 12.5,20.5C 13.4795,15.6757 15.1462,15.6757 17.5,20.5 Z"/></g>
<g><path style="opacity:1" fill="#ad8850" d="M 30.5,22.5 C 30.5,22.8333 30.5,23.1667 30.5,23.5C 29.1667,23.5 27.8333,23.5 26.5,23.5C 26.5,24.5 26.5,25.5 26.5,26.5C 26.1667,26.5 25.8333,26.5 25.5,26.5C 25.7373,25.209 25.404,24.209 24.5,23.5C 24.4828,21.4352 24.1495,19.4352 23.5,17.5C 24.5676,16.5655 25.901,16.2322 27.5,16.5C 27.3862,19.216 28.3862,21.216 30.5,22.5 Z"/></g>
<g><path style="opacity:1" fill="#e1ad53" d="M 17.5,20.5 C 19.153,20.6596 20.4863,21.3263 21.5,22.5C 21.5,22.8333 21.5,23.1667 21.5,23.5C 21.5,23.8333 21.5,24.1667 21.5,24.5C 21.5,25.8333 21.5,27.1667 21.5,28.5C 19.9826,28.4894 18.8159,27.8228 18,26.5C 17.5045,24.5273 17.3379,22.5273 17.5,20.5 Z"/></g>
<g><path style="opacity:1" fill="#78643d" d="M 23.5,17.5 C 24.1495,19.4352 24.4828,21.4352 24.5,23.5C 23.5,23.5 22.5,23.5 21.5,23.5C 21.5,23.1667 21.5,22.8333 21.5,22.5C 22.3764,22.6309 23.0431,22.2975 23.5,21.5C 22.2947,20.0052 22.2947,18.6719 23.5,17.5 Z"/></g>
<g><path style="opacity:1" fill="#c92e2b" d="M 21.5,24.5 C 21.5,24.1667 21.5,23.8333 21.5,23.5C 22.5,23.5 23.5,23.5 24.5,23.5C 25.404,24.209 25.7373,25.209 25.5,26.5C 24.8333,26.1667 24.1667,25.8333 23.5,25.5C 22.8333,25.1667 22.1667,24.8333 21.5,24.5 Z"/></g>
<g><path style="opacity:1" fill="#c8cfc3" d="M 30.5,23.5 C 30.5,24.1667 30.5,24.8333 30.5,25.5C 28.8049,24.1736 27.4716,24.5069 26.5,26.5C 26.5,25.5 26.5,24.5 26.5,23.5C 27.8333,23.5 29.1667,23.5 30.5,23.5 Z"/></g>
<g><path style="opacity:1" fill="#8e7143" d="M 7.5,21.5 C 7.83333,21.5 8.16667,21.5 8.5,21.5C 8.50454,25.5341 8.83787,29.5341 9.5,33.5C 7.75006,29.8171 7.08339,25.8171 7.5,21.5 Z"/></g>
<g><path style="opacity:1" fill="#dfb058" d="M 34.5,20.5 C 35.2389,20.369 35.9056,20.5357 36.5,21C 35.8095,22.0674 35.3095,23.2341 35,24.5C 34.2525,26.751 32.7525,28.0844 30.5,28.5C 30.5,27.5 30.5,26.5 30.5,25.5C 30.5,24.8333 30.5,24.1667 30.5,23.5C 30.5,23.1667 30.5,22.8333 30.5,22.5C 31.287,20.8958 32.6203,20.2291 34.5,20.5 Z"/></g>
<g><path style="opacity:1" fill="#75847a" d="M 30.5,25.5 C 30.5,26.5 30.5,27.5 30.5,28.5C 29.5,28.5 28.5,28.5 27.5,28.5C 27.1667,27.8333 26.8333,27.1667 26.5,26.5C 27.4716,24.5069 28.8049,24.1736 30.5,25.5 Z"/></g>
<g><path style="opacity:1" fill="#9b3f3e" d="M 21.5,24.5 C 22.1667,24.8333 22.8333,25.1667 23.5,25.5C 23.5569,26.609 23.8902,27.609 24.5,28.5C 23.5,28.5 22.5,28.5 21.5,28.5C 21.5,27.1667 21.5,25.8333 21.5,24.5 Z"/></g>
<g><path style="opacity:1" fill="#cbb6a0" d="M 21.5,28.5 C 22.5,28.5 23.5,28.5 24.5,28.5C 24.427,30.0269 25.0937,31.0269 26.5,31.5C 26.5,32.5 26.5,33.5 26.5,34.5C 25.391,34.4431 24.391,34.1098 23.5,33.5C 23.1667,33.5 22.8333,33.5 22.5,33.5C 21.6993,31.9582 21.366,30.2915 21.5,28.5 Z"/></g>
<g><path style="opacity:1" fill="#513924" d="M 23.5,25.5 C 24.1667,25.8333 24.8333,26.1667 25.5,26.5C 25.8333,26.5 26.1667,26.5 26.5,26.5C 26.8333,27.1667 27.1667,27.8333 27.5,28.5C 27.4431,29.609 27.1098,30.609 26.5,31.5C 25.0937,31.0269 24.427,30.0269 24.5,28.5C 23.8902,27.609 23.5569,26.609 23.5,25.5 Z"/></g>
<g><path style="opacity:1" fill="#ad8a48" d="M 33.5,35.5 C 33.5,36.1667 33.8333,36.5 34.5,36.5C 34.5,37.1667 34.1667,37.5 33.5,37.5C 32.8333,37.5 32.1667,37.5 31.5,37.5C 31.2624,35.5956 30.2624,34.2623 28.5,33.5C 29.4408,31.9505 30.1075,30.2838 30.5,28.5C 32.7525,28.0844 34.2525,26.751 35,24.5C 35.3095,23.2341 35.8095,22.0674 36.5,21C 35.9056,20.5357 35.2389,20.369 34.5,20.5C 35.4577,19.0384 36.6244,17.7051 38,16.5C 39.4217,19.0301 39.755,21.6967 39,24.5C 38.5614,29.1069 36.0614,31.4402 31.5,31.5C 31.2291,33.3797 31.8958,34.713 33.5,35.5 Z"/></g>
<g><path style="opacity:1" fill="#d5463a" d="M 27.5,28.5 C 28.5,28.5 29.5,28.5 30.5,28.5C 30.1075,30.2838 29.4408,31.9505 28.5,33.5C 27.8333,33.8333 27.1667,34.1667 26.5,34.5C 26.5,33.5 26.5,32.5 26.5,31.5C 27.1098,30.609 27.4431,29.609 27.5,28.5 Z"/></g>
<g><path style="opacity:1" fill="#5a3530" d="M 4.5,20.5 C 5.16667,20.5 5.83333,20.5 6.5,20.5C 7.16667,20.5 7.5,20.8333 7.5,21.5C 7.08339,25.8171 7.75006,29.8171 9.5,33.5C 10.3382,33.8417 10.6716,34.5084 10.5,35.5C 11.4151,37.7541 12.7484,39.7541 14.5,41.5C 15.8333,41.8333 17.1667,42.1667 18.5,42.5C 19.1667,43.1667 19.8333,43.8333 20.5,44.5C 23.8499,44.665 27.1832,44.4983 30.5,44C 31.7375,43.7679 32.7375,43.2679 33.5,42.5C 33.8417,41.6618 34.5084,41.3284 35.5,41.5C 36.609,41.4431 37.609,41.1098 38.5,40.5C 40.0269,40.427 41.0269,41.0937 41.5,42.5C 40.5041,42.5858 39.6708,42.2524 39,41.5C 38.5357,42.0944 38.369,42.7611 38.5,43.5C 36.8212,43.2852 35.8212,43.9519 35.5,45.5C 34.1765,44.1501 33.1765,44.3167 32.5,46C 33.4821,48.8612 34.4821,49.0279 35.5,46.5C 37.1667,46.5 38.8333,46.5 40.5,46.5C 27.0468,54.7407 15.2135,52.7407 5,40.5C 2.92429,37.1069 1.75763,33.4402 1.5,29.5C 1.33982,27.8008 1.50649,26.1341 2,24.5C 2.48278,25.448 2.64945,26.448 2.5,27.5C 3.5,27.5 4.5,27.5 5.5,27.5C 5.5,26.1667 5.5,24.8333 5.5,23.5C 4.5,23.5 3.5,23.5 2.5,23.5C 2.28519,21.8212 2.95186,20.8212 4.5,20.5 Z"/></g>
<g><path style="opacity:1" fill="#a67843" d="M 3.5,31.5 C 6.79731,31.3287 7.13065,31.9954 4.5,33.5C 3.70245,33.0431 3.36912,32.3764 3.5,31.5 Z"/></g>
<g><path style="opacity:1" fill="#56312f" d="M 44.5,20.5 C 44.8333,20.5 45.1667,20.5 45.5,20.5C 45.8333,20.5 46.1667,20.5 46.5,20.5C 47.8333,20.5 49.1667,20.5 50.5,20.5C 50.5,21.5 50.5,22.5 50.5,23.5C 49.1667,23.5 47.8333,23.5 46.5,23.5C 46.5,24.8333 46.5,26.1667 46.5,27.5C 47.5,27.5 48.5,27.5 49.5,27.5C 49.3505,26.448 49.5172,25.448 50,24.5C 50.4935,26.1341 50.6602,27.8008 50.5,29.5C 49.9882,36.8609 46.6549,42.5276 40.5,46.5C 38.8333,46.5 37.1667,46.5 35.5,46.5C 35.5,46.1667 35.5,45.8333 35.5,45.5C 35.8212,43.9519 36.8212,43.2852 38.5,43.5C 40.1959,45.129 41.1959,44.7957 41.5,42.5C 41.0269,41.0937 40.0269,40.427 38.5,40.5C 43.5055,34.8107 45.5055,28.1441 44.5,20.5 Z"/></g>
<g><path style="opacity:1" fill="#c08e4a" d="M 45.5,31.5 C 46.5,31.5 47.5,31.5 48.5,31.5C 47.7542,35.31 46.7542,35.31 45.5,31.5 Z"/></g>
<g><path style="opacity:1" fill="#ced0d0" d="M 18.5,35.5 C 18.5,36.1667 18.1667,36.5 17.5,36.5C 16.2438,36.5386 15.2438,36.0386 14.5,35C 15.8193,34.805 17.1526,34.9717 18.5,35.5 Z"/></g>
<g><path style="opacity:1" fill="#2b3b38" d="M 22.5,33.5 C 22.8333,33.5 23.1667,33.5 23.5,33.5C 23.5674,34.9587 23.2341,36.2921 22.5,37.5C 21.8333,37.5 21.1667,37.5 20.5,37.5C 20.7329,35.9382 21.3995,34.6049 22.5,33.5 Z"/></g>
<g><path style="opacity:1" fill="#c59e54" d="M 23.5,33.5 C 24.391,34.1098 25.391,34.4431 26.5,34.5C 27.1667,34.1667 27.8333,33.8333 28.5,33.5C 28.4326,34.9587 28.7659,36.2921 29.5,37.5C 27.1667,38.8333 24.8333,38.8333 22.5,37.5C 23.2341,36.2921 23.5674,34.9587 23.5,33.5 Z"/></g>
<g><path style="opacity:1" fill="#303e3a" d="M 28.5,33.5 C 30.2624,34.2623 31.2624,35.5956 31.5,37.5C 30.8333,37.5 30.1667,37.5 29.5,37.5C 28.7659,36.2921 28.4326,34.9587 28.5,33.5 Z"/></g>
<g><path style="opacity:1" fill="#cecfd0" d="M 36.5,36.5 C 35.8333,36.5 35.1667,36.5 34.5,36.5C 33.8333,36.5 33.5,36.1667 33.5,35.5C 34.5832,35.4606 35.5832,35.1272 36.5,34.5C 37.463,34.9698 37.463,35.6365 36.5,36.5 Z"/></g>
<g><path style="opacity:1" fill="#846941" d="M 10.5,35.5 C 13.192,37.8623 15.8587,40.1956 18.5,42.5C 17.1667,42.1667 15.8333,41.8333 14.5,41.5C 12.7484,39.7541 11.4151,37.7541 10.5,35.5 Z"/></g>
<g><path style="opacity:1" fill="#b88747" d="M 6.5,36.5 C 9.86057,37.2032 10.1939,38.5365 7.5,40.5C 5.82409,39.2724 5.49076,37.9391 6.5,36.5 Z"/></g>
<g><path style="opacity:1" fill="#9e7141" d="M 42.5,36.5 C 43.6431,36.9081 44.6431,37.5748 45.5,38.5C 43.6043,39.6394 42.6043,38.9728 42.5,36.5 Z"/></g>
<g><path style="opacity:1" fill="#bdbcb8" d="M 18.5,37.5 C 19.1667,37.5 19.8333,37.5 20.5,37.5C 21.1667,37.5 21.8333,37.5 22.5,37.5C 24.8333,38.8333 27.1667,38.8333 29.5,37.5C 30.1667,37.5 30.8333,37.5 31.5,37.5C 32.1667,37.5 32.8333,37.5 33.5,37.5C 32.8333,38.1667 32.1667,38.8333 31.5,39.5C 28.1667,39.5 24.8333,39.5 21.5,39.5C 20.2905,39.0679 19.2905,38.4013 18.5,37.5 Z"/></g>
<g><path style="opacity:1" fill="#b8985a" d="M 21.5,39.5 C 24.8333,39.5 28.1667,39.5 31.5,39.5C 30.3064,40.7773 28.6397,41.4439 26.5,41.5C 24.3603,41.4439 22.6936,40.7773 21.5,39.5 Z"/></g>
<g><path style="opacity:1" fill="#c2914a" d="M 41.5,42.5 C 41.1959,44.7957 40.1959,45.129 38.5,43.5C 38.369,42.7611 38.5357,42.0944 39,41.5C 39.6708,42.2524 40.5041,42.5858 41.5,42.5 Z"/></g>
<g><path style="opacity:1" fill="#8d6f42" d="M 18.5,42.5 C 23.4908,43.7523 28.4908,43.7523 33.5,42.5C 32.7375,43.2679 31.7375,43.7679 30.5,44C 27.1832,44.4983 23.8499,44.665 20.5,44.5C 19.8333,43.8333 19.1667,43.1667 18.5,42.5 Z"/></g>
<g><path style="opacity:1" fill="#b68647" d="M 14.5,41.5 C 14.7778,43.3464 14.1112,44.6798 12.5,45.5C 11.0585,43.1671 11.7252,41.8338 14.5,41.5 Z"/></g>
<g><path style="opacity:1" fill="#bb8a48" d="M 35.5,45.5 C 35.5,45.8333 35.5,46.1667 35.5,46.5C 34.4821,49.0279 33.4821,48.8612 32.5,46C 33.1765,44.3167 34.1765,44.1501 35.5,45.5 Z"/></g>
<g><path style="opacity:1" fill="#a87a43" d="M 20.5,44.5 C 21.9536,47.3999 20.9536,48.7332 17.5,48.5C 17.0882,46.0274 18.0882,44.6941 20.5,44.5 Z"/></g>
<g><path style="opacity:1" fill="#ca974c" d="M 25.5,46.5 C 26.5,46.5 27.5,46.5 28.5,46.5C 28.5,47.5 28.5,48.5 28.5,49.5C 27.5,49.5 26.5,49.5 25.5,49.5C 25.5,48.5 25.5,47.5 25.5,46.5 Z"/></g>
</svg>
